<?xml version="1.0" encoding="iso-8859-1"?>
<!-- Generator: Adobe Illustrator 19.0.0, SVG Export Plug-In . SVG Version: 6.00 Build 0)  -->
<svg version="1.1" id="Capa_1" xmlns="http://www.w3.org/2000/svg" xmlns:xlink="http://www.w3.org/1999/xlink" x="0px" y="0px"
	 viewBox="0 0 512 512" style="enable-background:new 0 0 512 512;" xml:space="preserve">
<polygon style="fill:#D9D9D9;" points="86.78,438.237 86.78,4.339 312.407,4.339 399.186,91.119 399.186,438.237 "/>
<polygon style="fill:#DBDBDB;" points="399.186,91.119 312.407,91.119 312.407,4.339 "/>
<g>
	<rect x="121.492" y="30.373" style="fill:#BDBDBD;" width="164.881" height="17.356"/>
	
		<rect x="134.526" y="51.668" transform="matrix(-0.0166 0.9999 -0.9999 -0.0166 218.935 -68.6036)" style="fill:#BDBDBD;" width="17.357" height="43.391"/>
	<rect x="182.237" y="65.085" style="fill:#BDBDBD;" width="104.136" height="17.356"/>
	<path style="fill:#BDBDBD;" d="M355.797,125.831H242.983v17.356h104.136v34.712H242.983v17.356h104.136v34.712H242.983v17.356
		h104.136v34.712H242.983v17.356h104.136v34.712H242.983v17.356h104.136v34.712H242.983v17.356h112.814
		c4.79,0,8.678-3.888,8.678-8.678V134.508C364.475,129.718,360.587,125.831,355.797,125.831z"/>
</g>
<rect y="108.475" style="fill:#4398D1;" width="277.695" height="399.186"/>
<polygon style="fill:#3E8CC7;" points="38.53,507.661 277.695,507.661 277.695,108.475 234.999,108.475 "/>
<rect x="34.712" y="151.864" style="fill:#87CED9;" width="208.271" height="69.424"/>
<polygon style="fill:#4398D1;" points="468.61,65.085 468.61,368.814 451.254,386.169 433.898,368.814 433.898,65.085 "/>
<polygon style="fill:#6CBBC7;" points="85.825,221.288 242.983,221.288 242.983,151.864 195.515,151.864 "/>
<g>
	<rect x="95.458" y="177.898" style="fill:#3E8CC7;" width="17.356" height="17.356"/>
	<rect x="130.169" y="177.898" style="fill:#3E8CC7;" width="17.356" height="17.356"/>
	<rect x="164.881" y="177.898" style="fill:#3E8CC7;" width="17.356" height="17.356"/>
	<rect x="199.593" y="177.898" style="fill:#3E8CC7;" width="17.356" height="17.356"/>
</g>
<g>
	<rect x="43.39" y="273.356" style="fill:#FFA83D;" width="34.712" height="34.712"/>
	<rect x="95.458" y="273.356" style="fill:#FFA83D;" width="34.712" height="34.712"/>
	<rect x="147.525" y="273.356" style="fill:#FFA83D;" width="34.712" height="34.712"/>
	<rect x="199.593" y="273.356" style="fill:#FFA83D;" width="34.712" height="34.712"/>
	<rect x="43.39" y="325.424" style="fill:#FFA83D;" width="34.712" height="34.712"/>
	<rect x="95.458" y="325.424" style="fill:#FFA83D;" width="34.712" height="34.712"/>
	<rect x="147.525" y="325.424" style="fill:#FFA83D;" width="34.712" height="34.712"/>
	<rect x="199.593" y="325.424" style="fill:#FFA83D;" width="34.712" height="34.712"/>
	<rect x="43.39" y="377.492" style="fill:#FFA83D;" width="34.712" height="34.712"/>
	<rect x="95.458" y="377.492" style="fill:#FFA83D;" width="34.712" height="34.712"/>
	<rect x="147.525" y="377.492" style="fill:#FFA83D;" width="34.712" height="34.712"/>
</g>
<rect x="199.593" y="377.492" style="fill:#DE4C3C;" width="34.712" height="86.78"/>
<g>
	<rect x="43.39" y="429.559" style="fill:#FFA83D;" width="34.712" height="34.712"/>
	<rect x="95.458" y="429.559" style="fill:#FFA83D;" width="34.712" height="34.712"/>
	<rect x="147.525" y="429.559" style="fill:#FFA83D;" width="34.712" height="34.712"/>
</g>
<polygon style="fill:#3E8CC7;" points="451.254,65.085 451.254,386.169 468.61,368.814 468.61,65.085 "/>
<g>
	<path style="fill:#126099;" d="M512,221.288h-17.356V108.475h-60.746V91.119h69.424c4.79,0,8.678,3.888,8.678,8.678V221.288z"/>
	<rect x="433.898" y="195.254" style="fill:#126099;" width="34.712" height="17.356"/>
</g>
<rect x="312.407" y="91.119" style="fill:#D1D1D1;" width="86.78" height="17.356"/>
<g>
</g>
<g>
</g>
<g>
</g>
<g>
</g>
<g>
</g>
<g>
</g>
<g>
</g>
<g>
</g>
<g>
</g>
<g>
</g>
<g>
</g>
<g>
</g>
<g>
</g>
<g>
</g>
<g>
</g>
</svg>
