<svg height="512" viewBox="0 0 64 64" width="512" xmlns="http://www.w3.org/2000/svg"><g id="Call_and_email" data-name="Call and email"><path d="m15 6v31l18.282-15.103z" fill="#ff9811"/><path d="m42.718 21.897 18.282 15.103v-31z" fill="#ff9811"/><path d="m39.312 24.859a2 2 0 0 1 -2.624 0l-3.406-2.959-18.282 15.1h46l-18.282-15.1z" fill="#ffa733"/><path d="m15 6 18.282 15.9 3.406 2.962a2 2 0 0 0 2.624 0l3.406-2.962 18.282-15.9z" fill="#ffb655"/><path d="m22.565 24.464a2 2 0 0 0 0-2.828l-8.485-8.485a2 2 0 0 0 -2.829 0l-2.828 2.828 11.314 11.314z" fill="#ff7956"/><path d="m13.665 12.636h2.828v16h-2.828z" fill="#ff6243" transform="matrix(.707 -.707 .707 .707 -10.175 16.707)"/><path d="m50.849 52.749a2 2 0 0 0 0-2.829l-8.485-8.485a2 2 0 0 0 -2.828 0l-2.829 2.828 11.314 11.314z" fill="#ff7956"/><path d="m41.95 40.92h2.828v16h-2.828z" fill="#ff6243" transform="matrix(.707 -.707 .707 .707 -21.891 44.991)"/><path d="m15 34v3l3.632-3z" fill="#ee8700"/><path d="m57 9.478v16.522a7.97 7.97 0 0 1 -2.4 5.711l6.4 5.289v-31z" fill="#ee8700"/><path d="m49 34h-30.368l-3.632 3h46l-6.4-5.289a7.972 7.972 0 0 1 -5.6 2.289z" fill="#cc7400"/><path d="m39.312 24.859a2 2 0 0 1 -2.624 0l-3.406-2.959-14.65 12.1h30.368a7.972 7.972 0 0 0 5.6-2.289l-11.882-9.811z" fill="#ee8700"/><path d="m18.322 28.707 1.415-1.414-11.314-11.314a18 18 0 0 0 0 25.456l14.142 14.142a18 18 0 0 0 25.456 0l-11.314-11.314-1.414 1.415a8 8 0 0 1 -11.314 0l-5.657-5.657a7.966 7.966 0 0 1 -1.888-3.021 7.994 7.994 0 0 1 1.888-8.293z" fill="#ffcd00"/><path d="m24.565 53.577-14.142-14.142a17.99 17.99 0 0 1 -1.823-23.284l-.172-.172a18 18 0 0 0 0 25.456l14.137 14.142a18 18 0 0 0 25.456 0l-.173-.172a17.988 17.988 0 0 1 -23.283-1.828z" fill="#ebbf00"/></g></svg>