<svg height="512pt" viewBox="-20 0 512 512" width="512pt" xmlns="http://www.w3.org/2000/svg" xmlns:xlink="http://www.w3.org/1999/xlink"><linearGradient id="a" gradientUnits="userSpaceOnUse" x1="0" x2="471" y1="256" y2="256"><stop offset="0" stop-color="#00f2fe"/><stop offset=".0208" stop-color="#03effe"/><stop offset=".2931" stop-color="#24d2fe"/><stop offset=".5538" stop-color="#3cbdfe"/><stop offset=".7956" stop-color="#4ab0fe"/><stop offset="1" stop-color="#4facfe"/></linearGradient><path d="m431 332v-292h-331c-11.027344 0-20 8.972656-20 20v26h20c11.046875 0 20 8.953125 20 20s-8.953125 20-20 20h-40c-11.027344 0-20 8.972656-20 20s8.972656 20 20 20c11.046875 0 20 8.953125 20 20v20h20c11.046875 0 20 8.953125 20 20s-8.953125 20-20 20h-40c-11.027344 0-20 8.972656-20 20s8.972656 20 20 20c11.046875 0 20 8.953125 20 20v20h20c11.046875 0 20 8.953125 20 20s-8.953125 20-20 20h-40c-11.027344 0-20 8.972656-20 20s8.972656 20 20 20c11.046875 0 20 8.953125 20 20v26c0 11.027344 8.972656 20 20 20h331v-40c0-11.046875 8.953125-20 20-20s20 8.953125 20 20v60c0 11.046875-8.953125 20-20 20h-351c-33.085938 0-60-26.914062-60-60v-9.425781c-23.28125-8.257813-40-30.5-40-56.574219s16.722656-48.304688 40-56.558594v-6.867187c-23.28125-8.257813-40-30.5-40-56.574219s16.722656-48.304688 40-56.558594v-6.871094c-23.28125-8.253906-40-30.496093-40-56.570312s16.722656-48.304688 40-56.5625v-29.4375c0-33.085938 26.914062-60 60-60h351c11.046875 0 20 8.953125 20 20v312c0 11.046875-8.953125 20-20 20s-20-8.953125-20-20zm-220.023438-90.917969c-6.296874-9.492187-9.976562-20.863281-9.976562-33.082031 0-33.085938 26.914062-60 60-60s60 26.914062 60 60c0 12.214844-3.679688 23.585938-9.972656 33.074219 25.230468 14.085937 44.320312 38.511719 50.917968 68.097656.125.453125.238282.914063.335938 1.382813 2.117188 10.234374-.457031 20.753906-7.0625 28.863281-6.511719 7.996093-16.117188 12.582031-26.359375 12.582031h-135.71875c-10.289063 0-19.917969-4.582031-26.425781-12.570312-6.550782-8.046876-9.101563-18.503907-6.996094-28.6875 6.265625-30.292969 25.585938-55.328126 51.257812-69.660157zm50.023438-13.082031c11.027344 0 20-8.972656 20-20s-8.972656-20-20-20-20 8.972656-20 20 8.972656 20 20 20zm-60.292969 84h120.585938c-8.4375-25.871094-32.765625-44-60.292969-44s-51.855469 18.128906-60.292969 44zm0 0" fill="url(#a)"/></svg>