<?xml version="1.0" encoding="iso-8859-1"?>
<!-- Generator: Adobe Illustrator 19.0.0, SVG Export Plug-In . SVG Version: 6.00 Build 0)  -->
<svg version="1.1" id="Capa_1" xmlns="http://www.w3.org/2000/svg" xmlns:xlink="http://www.w3.org/1999/xlink" x="0px" y="0px"
	 viewBox="0 0 472 472" style="enable-background:new 0 0 472 472;" xml:space="preserve">
<g>
	<path style="fill:#D1E1E8;" d="M304,280h-40c-17.673,0-32,14.327-32,32h72V280z"/>
	<path style="fill:#D1E1E8;" d="M200,280h-40v32h72C232,294.327,217.673,280,200,280z"/>
</g>
<path style="fill:#96561E;" d="M0,312v48h24v112h32V360h96v-8c0-8.837,7.163-16,16-16h128c8.837,0,16,7.163,16,16v8h96v112h32V360
	h24v-48H0z"/>
<path style="fill:#4F81BD;" d="M368,296c0,8.837,7.163,16,16,16h80v-32h-80C375.163,280,368,287.163,368,296z"/>
<path style="fill:#D1E1E8;" d="M384,248c-8.837,0-16,7.163-16,16s7.163,16,16,16h80v-32H384z"/>
<path style="fill:#4F81BD;" d="M448,216h-80c-8.837,0-16,7.163-16,16c0,8.837,7.163,16,16,16h80V216z"/>
<path style="fill:#FFEBDB;" d="M240,152h224V8H240V152z"/>
<rect x="272" y="48" style="fill:#4F81BD;" width="48" height="48"/>
<g>
	<polygon style="fill:#FFA442;" points="400,95.24 424.336,100.6 434.656,53.72 387.784,43.4 381.48,72 400,72 	"/>
	<polygon style="fill:#FFA442;" points="400,95.24 400,72 381.48,72 352,72 352,120 400,120 	"/>
</g>
<path style="opacity:0.3;enable-background:new    ;" d="M370.216,304c2.838,4.935,8.091,7.984,13.784,8h80v-8H370.216z"/>
<path style="opacity:0.3;enable-background:new    ;" d="M370.216,272c2.838,4.935,8.091,7.984,13.784,8h80v-8H370.216z"/>
<path style="opacity:0.3;enable-background:new    ;" d="M354.216,240c2.838,4.935,8.091,7.984,13.784,8h80v-8H354.216z"/>
<path style="fill:#80491A;" d="M152,328h160c4.418,0,8,3.582,8,8v24l0,0H144l0,0v-24C144,331.582,147.582,328,152,328z"/>
<path style="fill:#96561E;" d="M296,336H168c-8.837,0-16,7.163-16,16v120h160V352C312,343.163,304.837,336,296,336z"/>
<path style="opacity:0.3;enable-background:new    ;" d="M232,312h72v-8h-70.872C232.414,306.608,232.035,309.296,232,312z"/>
<path style="opacity:0.3;enable-background:new    ;" d="M232,312c-0.035-2.704-0.414-5.392-1.128-8H160v8H232z"/>
<g>
	<path style="fill:#80491A;" d="M24,360L24,360c15.108,5.037,26.963,16.892,32,32l0,0v-32H24z"/>
	<path style="fill:#80491A;" d="M440,360L440,360c-15.108,5.037-26.963,16.892-32,32l0,0v-32H440z"/>
</g>
<path style="fill:#4F81BD;" d="M208,156.688l-34.032-34.032L142.248,83c-2.62-3.289-7.339-3.988-10.8-1.6l-104,72
	c-2.923,2.022-4.162,5.731-3.04,9.104L60.896,272H32c-4.418,0-8,3.582-8,8v32h96v-32c0-4.418-3.582-8-8-8H77.768l-36.28-108.8
	L134.4,98.832l22.864,28.576L128,156.688c-6.247,6.249-6.246,16.38,0.003,22.627c3,2.999,7.067,4.684,11.309,4.685h57.376
	c8.837-0.002,15.998-7.167,15.997-16.003C212.684,163.755,210.999,159.688,208,156.688z"/>
<g>
	<rect x="160" y="200" style="fill:#FFA442;" width="16" height="24"/>
	
		<rect x="192.001" y="196.688" transform="matrix(-0.7071 0.7071 -0.7071 -0.7071 488.5018 213.656)" style="fill:#FFA442;" width="16" height="22.624"/>
	
		<rect x="124.69" y="199.999" transform="matrix(-0.7071 0.7071 -0.7071 -0.7071 379.2479 258.9084)" style="fill:#FFA442;" width="22.624" height="16"/>
</g>
<path style="fill:#96561E;" d="M464,160H240c-4.418,0-8-3.582-8-8V8c0-4.418,3.582-8,8-8h224c4.418,0,8,3.582,8,8v144
	C472,156.418,468.418,160,464,160z M248,144h208V16H248V144z"/>
<rect x="24" y="304" style="opacity:0.3;enable-background:new    ;" width="96" height="8"/>
<g>
</g>
<g>
</g>
<g>
</g>
<g>
</g>
<g>
</g>
<g>
</g>
<g>
</g>
<g>
</g>
<g>
</g>
<g>
</g>
<g>
</g>
<g>
</g>
<g>
</g>
<g>
</g>
<g>
</g>
</svg>
