<svg height="512" viewBox="0 0 60 46" width="512" xmlns="http://www.w3.org/2000/svg"><g id="Page-1" fill="none" fill-rule="evenodd"><g id="004---Delivery" fill-rule="nonzero"><path id="Shape" d="m40 2v32l-39-2 7.621-30.485c.22262043-.89062096 1.02297743-1.51532 1.941-1.515h27.438c1.1045695 0 2 .8954305 2 2z" fill="#35495e"/><path id="Shape" d="m59 32v-14.333c0-.4327404-.1403557-.8538077-.4-1.2l-8-10.667c-.3777088-.50361169-.9704854-.8-1.6-.8h-9v29z" fill="#e64c3c"/><path id="Shape" d="m14 37h43c1.1032019-.0032948 1.9967052-.8967981 2-2v-3h-58v3c.0032948 1.1032019.89679813 1.9967052 2 2z" fill="#547580"/><circle id="Oval" cx="10" cy="40" fill="#35495e" r="5"/><circle id="Oval" cx="10" cy="40" fill="#3f5c6c" r="2"/><circle id="Oval" cx="50" cy="40" fill="#35495e" r="5"/><path id="Shape" d="m55 18.67v.33c0 .5522847-.4477153 1-1 1h-9c-.5522847 0-1-.4477153-1-1v-9c0-.55228475.4477153-1 1-1h2.5c.3142421.00216564.6097222.14990569.8.4l1.58 2.11 4.92 6.56c.1308754.1725425.2011748.3834408.2.6z" fill="#67b9cc"/><path id="Shape" d="m46 25h-2c-.5522847 0-1-.4477153-1-1s.4477153-1 1-1h2c.5522847 0 1 .4477153 1 1s-.4477153 1-1 1z" fill="#c03a2b"/><path id="Shape" d="m56 24h3v4h-3c-.5522847 0-1-.4477153-1-1v-2c0-.5522847.4477153-1 1-1z" fill="#f0c419"/><path id="Shape" d="m2 44h-1c-.55228475 0-1 .4477153-1 1s.44771525 1 1 1h1c.55228475 0 1-.4477153 1-1s-.44771525-1-1-1z" fill="#2c3e50"/><path id="Shape" d="m59 44h-53c-.55228475 0-1 .4477153-1 1s.44771525 1 1 1h53c.5522847 0 1-.4477153 1-1s-.4477153-1-1-1z" fill="#2c3e50"/><g fill="#955ba5"><circle id="Oval" cx="1" cy="4" r="1"/><path id="Shape" d="m5 5h11c.5522847 0 1-.44771525 1-1s-.4477153-1-1-1h-11c-.55228475 0-1 .44771525-1 1s.44771525 1 1 1z"/><path id="Shape" d="m20 5h5c.5522847 0 1-.44771525 1-1s-.4477153-1-1-1h-5c-.5522847 0-1 .44771525-1 1s.4477153 1 1 1z"/><circle id="Oval" cx="31" cy="24" r="1"/><path id="Shape" d="m28 24c0-.5522847-.4477153-1-1-1h-11c-.5522847 0-1 .4477153-1 1s.4477153 1 1 1h11c.5522847 0 1-.4477153 1-1z"/><path id="Shape" d="m12 23h-11c-.55228475 0-1 .4477153-1 1s.44771525 1 1 1h11c.5522847 0 1-.4477153 1-1s-.4477153-1-1-1z"/></g><path id="Shape" d="m27.2 20.6c.3313708.4418278.9581722.5313708 1.4.2s.5313708-.9581722.2-1.4l-9-12c-.3313708-.4418278-.9581722-.53137085-1.4-.2s-.5313708.9581722-.2 1.4z" fill="#f0c419"/><path id="Shape" d="m16 18c0 1.6568542 1.3431458 3 3 3s3-1.3431458 3-3-1.3431458-3-3-3-3 1.3431458-3 3zm4 0c0 .5522847-.4477153 1-1 1s-1-.4477153-1-1 .4477153-1 1-1 1 .4477153 1 1z" fill="#f0c419"/><path id="Shape" d="m25 10c0 1.6568542 1.3431458 3 3 3s3-1.3431458 3-3c0-1.65685425-1.3431458-3-3-3s-3 1.34314575-3 3zm3-1c.5522847 0 1 .44771525 1 1 0 .5522847-.4477153 1-1 1s-1-.4477153-1-1c0-.55228475.4477153-1 1-1z" fill="#f0c419"/><path id="Shape" d="m37 27h-13c-.5522847 0-1 .4477153-1 1s.4477153 1 1 1h13c.5522847 0 1-.4477153 1-1s-.4477153-1-1-1z" fill="#2c3e50"/><path id="Shape" d="m20 27h-2c-.5522847 0-1 .4477153-1 1s.4477153 1 1 1h2c.5522847 0 1-.4477153 1-1s-.4477153-1-1-1z" fill="#2c3e50"/><circle id="Oval" cx="50" cy="40" fill="#3f5c6c" r="2"/><path id="Shape" d="m55 18.67v.33c0 .5522847-.4477153 1-1 1h-8.31c.7258696-3.1143172 2.1596314-6.0194815 4.19-8.49l4.92 6.56c.1308754.1725425.2011748.3834408.2.6z" fill="#2fa8cc"/></g></g></svg>