<svg height="512" viewBox="0 0 60 47" width="512" xmlns="http://www.w3.org/2000/svg"><g id="Page-1" fill="none" fill-rule="evenodd"><g id="004---Delivery" fill-rule="nonzero"><path id="Shape" d="m40 3v30h-39l7.62-30.49c.22192351-.8899324 1.02282021-1.51331076 1.94-1.51h27.44c1.1032019.0032948 1.9967052.89679813 2 2z" fill="#f44335"/><path id="Shape" d="m38 1h-3c1.1032019.0032948 1.9967052.89679813 2 2v30h3v-30c-.0032948-1.10320187-.8967981-1.9967052-2-2z" fill="#c81e1e"/><path id="Shape" d="m59 33v3c-.0032948 1.1032019-.8967981 1.9967052-2 2h-3c-.9442719-1.2590292-2.4262135-2-4-2s-3.0557281.7409708-4 2h-32c-.9442719-1.2590292-2.4262135-2-4-2-1.57378652 0-3.05572809.7409708-4 2h-3c-1.10320187-.0032948-1.9967052-.8967981-2-2v-3z" fill="#9e9e9e"/><path id="Shape" d="m56 33v3c-.0032948 1.1032019-.8967981 1.9967052-2 2h3c1.1032019-.0032948 1.9967052-.8967981 2-2v-3z" fill="#707070"/><path id="Shape" d="m15 41c0 2.7614237-2.2385763 5-5 5-2.76142375 0-5-2.2385763-5-5-.00431176-1.0825464.34702278-2.13655 1-3 .94427191-1.2590292 2.42621348-2 4-2 1.5737865 0 3.0557281.7409708 4 2 .6529772.86345 1.0043118 1.9174536 1 3z" fill="#607d8b"/><path id="Shape" d="m14 38c-1.266982-1.7043387-3.478722-2.4124976-5.5-1.761.99601378.3130862 1.8698028.9285831 2.5 1.761.9734234 1.293807 1.2566564 2.9802597.7592971 4.5210788s-1.7131422 2.7434061-3.2592971 3.2239212c.48381554.1620147.98982576.2480365 1.5.255 2.7614237 0 5-2.2385763 5-5 .0043118-1.0825464-.3470228-2.13655-1-3z" fill="#37474f"/><path id="Shape" d="m55 41c0 2.7614237-2.2385763 5-5 5s-5-2.2385763-5-5c-.0043118-1.0825464.3470228-2.13655 1-3 .9442719-1.2590292 2.4262135-2 4-2s3.0557281.7409708 4 2c.6529772.86345 1.0043118 1.9174536 1 3z" fill="#607d8b"/><path id="Shape" d="m54 38c-1.266982-1.7043387-3.478722-2.4124976-5.5-1.761.9960138.3130862 1.8698028.9285831 2.5 1.761.9734234 1.293807 1.2566564 2.9802597.7592971 4.5210788s-1.7131422 2.7434061-3.2592971 3.2239212c.4838155.1620147.9898258.2480365 1.5.255 2.7614237 0 5-2.2385763 5-5 .0043118-1.0825464-.3470228-2.13655-1-3z" fill="#37474f"/><path id="Shape" d="m59 18.67.0000272 14.33h-19.0000272v-27h9c.6290338.00202953 1.2209561.2979907 1.6.8l8 10.67c.2616839.3451202.402275.7668935.4 1.2z" fill="#60a917"/><path id="Shape" d="m58.6 17.47-8-10.67c-.3790439-.5020093-.9709662-.79797047-1.6-.8h-3c.6290338.00202953 1.2209561.2979907 1.6.8l8 10.67c.2616839.3451202.402275.7668935.4 1.2v14.33h3.0000272l-.0000272-14.33c.002275-.4331065-.1383161-.8548798-.4-1.2z" fill="#549414"/><path id="Shape" d="m44 11v9c0 .5522847.4477153 1 1 1h9c.5522847 0 1-.4477153 1-1v-.333c0-.2163702-.0701779-.4269038-.2-.6l-6.5-8.667c-.1888544-.2518058-.4852427-.4-.8-.4h-2.5c-.5522847 0-1 .4477153-1 1z" fill="#02a9f4"/><path id="Shape" d="m56 25h3v4h-3c-.5522847 0-1-.4477153-1-1v-2c0-.5522847.4477153-1 1-1z" fill="#ffdc00"/><circle id="Oval" cx="19" cy="19" fill="#ffdc00" r="2"/><circle id="Oval" cx="28" cy="11" fill="#ffdc00" r="2"/><g fill="#000"><circle id="Oval" cx="10" cy="41" r="1"/><circle id="Oval" cx="50" cy="41" r="1"/><path id="Shape" d="m51.4 6.2c-.568209-.75344282-1.4563204-1.19749852-2.4-1.2h-8v-2c0-1.65685425-1.3431458-3-3-3h-27.438c-1.37670192-.00030783-2.57692036.93644803-2.911 2.272l-.432 1.728h-2.219c-.55228475 0-1 .44771525-1 1s.44771525 1 1 1h1.719l-4.5 18h-1.219c-.55228475 0-1 .4477153-1 1s.44771525 1 1 1h.719l-1.689 6.757c-.00199891.0349715-.00199891.0700285 0 .105-.01355187.0451554-.02358194.0912937-.03.138v3c0 1.6568542 1.34314575 3 3 3h1.35c-.74251136 2.0662399-.28489569 4.3735458 1.19 6h-.54c-.55228475 0-1 .4477153-1 1s.44771525 1 1 1h54c.5522847 0 1-.4477153 1-1s-.4477153-1-1-1h-4.54c1.4748957-1.6264542 1.9325114-3.9337601 1.19-6h1.35c1.6568542 0 3-1.3431458 3-3v-17.333c-.0010045-.6489472-.2114353-1.2802395-.6-1.8zm6.6 21.8h-2v-2h2zm-9-21c.3147573 0 .6111456.14819416.8.4l8 10.667c.1294362.1732981.1995701.3836998.2.6v5.333h-2c-1.1045695 0-2 .8954305-2 2v2c0 1.1045695.8954305 2 2 2h2v2h-17v-25zm-37 19c.5522847 0 1-.4477153 1-1s-.4477153-1-1-1h-7.719l4.5-18h7.219c.5522847 0 1-.44771525 1-1s-.4477153-1-1-1h-6.719l.31-1.242c.11116099-.44569003.5116567-.75833242.971-.758h27.438c.5522847 0 1 .44771525 1 1v29h-36.719l1.5-6zm-6 15c0-2.209139 1.790861-4 4-4s4 1.790861 4 4-1.790861 4-4 4c-1.06086596 0-2.07828161-.4214274-2.82842712-1.1715729-.75014552-.7501455-1.17157288-1.7675611-1.17157288-2.8284271zm8.46 4c1.4748957-1.6264542 1.9325114-3.9337601 1.19-6h28.7c-.7425114 2.0662399-.2848957 4.3735458 1.19 6zm31.54-4c0-2.209139 1.790861-4 4-4s4 1.790861 4 4-1.790861 4-4 4-4-1.790861-4-4zm12-5c0 .5522847-.4477153 1-1 1h-2.54c-1.1333619-1.2722703-2.7561277-1.9999497-4.46-1.9999497s-3.3266381.7276794-4.46 1.9999497h-31.08c-1.1333619-1.2722703-2.7561277-1.9999497-4.46-1.9999497-1.70387235 0-3.3266381.7276794-4.46 1.9999497h-2.54c-.55228475 0-1-.4477153-1-1v-2h56z"/><path id="Shape" d="m45 22h9c1.1045695 0 2-.8954305 2-2v-.333c-.0005744-.432647-.1408713-.8535377-.4-1.2l-6.5-8.667c-.3786356-.50249989-.9708187-.79859147-1.6-.8h-2.5c-1.1045695 0-2 .8954305-2 2v9c0 1.1045695.8954305 2 2 2zm0-11h2.5l6.5 8.667v.333h-9z"/><path id="Shape" d="m46 24h-2c-.5522847 0-1 .4477153-1 1s.4477153 1 1 1h2c.5522847 0 1-.4477153 1-1s-.4477153-1-1-1z"/><circle id="Oval" cx="1" cy="5" r="1"/><path id="Shape" d="m20 6h5c.5522847 0 1-.44771525 1-1s-.4477153-1-1-1h-5c-.5522847 0-1 .44771525-1 1s.4477153 1 1 1z"/><circle id="Oval" cx="31" cy="25" r="1"/><path id="Shape" d="m16 26h11c.5522847 0 1-.4477153 1-1s-.4477153-1-1-1h-11c-.5522847 0-1 .4477153-1 1s.4477153 1 1 1z"/><path id="Shape" d="m2 45h-1c-.55228475 0-1 .4477153-1 1s.44771525 1 1 1h1c.55228475 0 1-.4477153 1-1s-.44771525-1-1-1z"/><path id="Shape" d="m27.2 21.6c.3313708.4418278.9581722.5313708 1.4.2s.5313708-.9581722.2-1.4l-9-12c-.3313708-.4418278-.9581722-.53137085-1.4-.2s-.5313708.9581722-.2 1.4z"/><path id="Shape" d="m19 22c1.6568542 0 3-1.3431458 3-3s-1.3431458-3-3-3-3 1.3431458-3 3 1.3431458 3 3 3zm0-4c.5522847 0 1 .4477153 1 1s-.4477153 1-1 1-1-.4477153-1-1 .4477153-1 1-1z"/><path id="Shape" d="m25 11c0 1.6568542 1.3431458 3 3 3s3-1.3431458 3-3c0-1.65685425-1.3431458-3-3-3s-3 1.34314575-3 3zm3-1c.5522847 0 1 .4477153 1 1s-.4477153 1-1 1-1-.4477153-1-1 .4477153-1 1-1z"/><path id="Shape" d="m23 29c0 .5522847.4477153 1 1 1h13c.5522847 0 1-.4477153 1-1s-.4477153-1-1-1h-13c-.5522847 0-1 .4477153-1 1z"/><path id="Shape" d="m20 28h-2c-.5522847 0-1 .4477153-1 1s.4477153 1 1 1h2c.5522847 0 1-.4477153 1-1s-.4477153-1-1-1z"/></g></g></g></svg>