<svg height="472pt" viewBox="0 0 472 472" width="472pt" xmlns="http://www.w3.org/2000/svg" xmlns:xlink="http://www.w3.org/1999/xlink"><linearGradient id="a" gradientUnits="userSpaceOnUse" x1="69.2" x2="402.8" y1="402.8" y2="69.2"><stop offset="0" stop-color="#41dfd0"/><stop offset="1" stop-color="#ee83ef"/></linearGradient><path d="m236 0c-130.339844 0-236 105.660156-236 236s105.660156 236 236 236 236-105.660156 236-236c-.144531-130.277344-105.722656-235.855469-236-236zm0 456c-121.503906 0-220-98.496094-220-220s98.496094-220 220-220 220 98.496094 220 220c-.140625 121.445312-98.554688 219.859375-220 220zm-125.894531-214.59375c-2.988281-3.253906-2.769531-8.316406.488281-11.300781l80.839844-74.105469h-27.433594c-4.417969 0-8-3.582031-8-8s3.582031-8 8-8h48 .183594c.578125.046875 1.144531.160156 1.695312.335938.457032.070312.90625.179687 1.34375.328124.871094.5625 1.71875 1.160157 2.539063 1.792969.039062 0 .09375.054688.132812.09375.226563.316407.425781.648438.601563.992188.785156.914062 1.234375 2.070312 1.273437 3.273437.105469.386719.183594.785156.230469 1.183594v48c0 4.417969-3.582031 8-8 8s-8-3.582031-8-8v-29.816406l-82.59375 75.710937c-3.253906 2.988281-8.316406 2.769531-11.300781-.488281zm221.894531-109.40625h56v16h-48v48c0 4.417969-3.582031 8-8 8h-48v48c0 4.417969-3.582031 8-8 8h-48v48c0 4.417969-3.582031 8-8 8h-48v48c0 4.417969-3.582031 8-8 8h-56v-16h48v-48c0-4.417969 3.582031-8 8-8h48v-48c0-4.417969 3.582031-8 8-8h48v-48c0-4.417969 3.582031-8 8-8h48v-48c0-4.417969 3.582031-8 8-8zm0 0" fill="url(#a)"/></svg>