<svg id="Capa_1" enable-background="new 0 0 512 512" height="512" viewBox="0 0 512 512" width="512" xmlns="http://www.w3.org/2000/svg"><path d="m512 256c0 141.38-114.62 256-256 256-101.05 0-188.43-58.55-230.05-143.58v-.01l-25.8-121.03c4.54-137.39 117.35-247.38 255.85-247.38 141.38 0 256 114.62 256 256z" fill="#807bef"/><path d="m512 256c0 87.11-43.52 164.07-110 210.31-41.41 28.8-91.73 45.69-146 45.69s-104.59-16.89-146-45.69c-35.7-24.83-64.78-58.52-84.05-97.89l-25.8-121.04h-.01c1.43-42.99 13.45-83.29 33.54-118.38 44.12 77.07 127.16 129 222.32 129s178.21-51.93 222.32-129c21.43 37.43 33.68 80.78 33.68 127z" fill="#6666e2"/><path d="m431.986 124.07v270.345c0 8.643-7.005 15.648-15.648 15.648h-270.346c-8.643 0-15.648-7.005-15.648-15.648v-270.345c0-8.643 7.005-15.648 15.648-15.648h270.346c8.642 0 15.648 7.005 15.648 15.648z" fill="#ff9d66"/><path d="m431.986 124.07v270.345c0 8.643-7.005 15.648-15.648 15.648h-135.174v-301.641h135.173c8.643 0 15.649 7.005 15.649 15.648z" fill="#f4863d"/><path d="m318.495 108.422v61.041c0 7.301-5.928 13.229-13.229 13.229h-48.203c-7.301 0-13.229-5.928-13.229-13.229v-61.041z" fill="#fdf0b2"/><path d="m318.495 108.422v61.041c0 7.301-5.928 13.229-13.229 13.229h-24.101v-74.269h37.33z" fill="#fede8c"/><path d="m389.293 377.408h-70.045c-5.471 0-9.906-4.435-9.906-9.906 0-5.471 4.435-9.906 9.906-9.906h70.045c5.471 0 9.906 4.435 9.906 9.906 0 5.471-4.435 9.906-9.906 9.906z" fill="#374c81"/><path d="m389.293 340.426h-70.045c-5.471 0-9.906-4.435-9.906-9.906 0-5.471 4.435-9.906 9.906-9.906h70.045c5.471 0 9.906 4.435 9.906 9.906 0 5.47-4.435 9.906-9.906 9.906z" fill="#374c81"/><path d="m326.64 457.13h-106.04c-43.09 0-84.42-17.12-114.9-47.59l-13.791-13.794c-17.492-17.496-41.219-27.326-65.959-27.326-16.62-33.94-25.95-72.09-25.95-112.42 0-2.88.05-5.76.15-8.62h162.72c21.12 0 41.37 8.38 56.3 23.32l56.43 56.42c2.3 2.3 3.45 5.32 3.45 8.34 0 3.01-1.15 6.03-3.45 8.33-18.68 18.68-48.97 18.68-67.64 0l-23.75-23.74c-8.386-8.386-19.77-13.089-31.63-13.06-15.432.038-23.093 18.768-12.181 29.68l45.212 45.212c18.042 18.042 42.513 28.178 68.028 28.178h25.93c13 0 24.77 5.27 33.29 13.79 8.511 8.52 13.781 20.29 13.781 33.28z" fill="#ffc0a4"/></svg>