<svg id="Capa_1" enable-background="new 0 0 512 512" height="512" viewBox="0 0 512 512" width="512" xmlns="http://www.w3.org/2000/svg"><path d="m512 256c0 141.38-114.62 256-256 256-47.93 0-92.78-13.17-131.13-36.1l-88.45-88.23c-23.12-38.47-36.42-83.52-36.42-131.67 0-141.38 114.62-256 256-256s256 114.62 256 256z" fill="#66e1d2"/><path d="m512 256c0 87.11-43.52 164.07-110 210.31-41.41 28.8-91.73 45.69-146 45.69-47.92 0-92.77-13.17-131.11-36.08l-.01-.01-88.45-88.23c-23.13-38.47-36.43-83.53-36.43-131.68 0-46.22 12.25-89.57 33.68-127 44.12 77.07 127.16 129 222.32 129s178.21-51.93 222.32-129c21.43 37.43 33.68 80.78 33.68 127z" fill="#00cec9"/><path d="m326.55 117.74v368.24c0 7.07-2.82 13.48-7.4 18.17-20.2 5.13-41.36 7.85-63.15 7.85-1.36 0-2.72-.01-4.08-.04-31.22-.48-61.1-6.56-88.65-17.28-13.37-5.2-26.2-11.49-38.38-18.76l-88.5-88.28c-23.1-38.47-36.39-83.5-36.39-131.64 0-62.53 22.42-119.82 59.66-164.28h94.28c0 5.16 4.18 9.33 9.33 9.33 5.16 0 9.34-4.17 9.34-9.33h127.92c14.38 0 26.02 11.65 26.02 26.02z" fill="#369cef"/><path d="m326.55 117.74v368.24c0 7.07-2.82 13.48-7.4 18.17-20.2 5.13-41.36 7.85-63.15 7.85-32.7 0-63.98-6.13-92.73-17.32v-393.63c5.16 0 9.34-4.17 9.34-9.33h127.92c14.38 0 26.02 11.65 26.02 26.02z" fill="#008add"/><path d="m290.16 138.057v337.863h-165.27c-36.28-21.67-66.74-52.06-88.5-88.28v-249.583c0-5.665 4.592-10.257 10.257-10.257h233.256c5.665 0 10.257 4.592 10.257 10.257z" fill="#fff"/><path d="m290.161 138.059v337.86h-126.888v-348.117h116.631c5.665 0 10.257 4.592 10.257 10.257z" fill="#d1f6ff"/><path d="m198.484 91.72c-5.437 0-10.447-3.276-12.317-8.382-3.419-9.333-12.383-15.992-22.893-15.992-10.518 0-19.476 6.657-22.894 15.989-1.87 5.107-6.88 8.385-12.318 8.385h-21.098c-5.417 0-9.808 4.391-9.808 9.809v33.073c0 11.583 9.39 20.974 20.974 20.974h90.288c11.583 0 20.973-9.39 20.973-20.973v-33.073c0-5.417-4.391-9.809-9.808-9.809h-21.099zm-35.211 9.333c-5.156 0-9.333-4.177-9.333-9.333s4.177-9.333 9.333-9.333 9.333 4.177 9.333 9.333-4.176 9.333-9.333 9.333z" fill="#374c81"/><path d="m229.391 101.529v33.073c0 11.583-9.39 20.974-20.974 20.974h-45.144v-54.522c5.156 0 9.333-4.177 9.333-9.333s-4.177-9.333-9.333-9.333v-15.041c10.51 0 19.475 6.658 22.893 15.992 1.87 5.105 6.88 8.382 12.317 8.382h21.099c5.417-.001 9.809 4.391 9.809 9.808z" fill="#323b5a"/><g fill="#374c81"><path d="m253.623 235.93h-76.868c-7.446 0-13.482-6.036-13.482-13.482 0-7.446 6.036-13.482 13.482-13.482h76.868c7.446 0 13.482 6.036 13.482 13.482 0 7.446-6.036 13.482-13.482 13.482z"/><path d="m253.623 289.857h-76.868c-7.446 0-13.482-6.036-13.482-13.482 0-7.446 6.036-13.482 13.482-13.482h76.868c7.446 0 13.482 6.036 13.482 13.482 0 7.446-6.036 13.482-13.482 13.482z"/><path d="m253.623 343.785h-76.868c-7.446 0-13.482-6.036-13.482-13.482 0-7.446 6.036-13.482 13.482-13.482h76.868c7.446 0 13.482 6.036 13.482 13.482 0 7.446-6.036 13.482-13.482 13.482z"/><path d="m253.623 397.712h-76.868c-7.446 0-13.482-6.036-13.482-13.482 0-7.446 6.036-13.482 13.482-13.482h76.868c7.446 0 13.482 6.036 13.482 13.482 0 7.446-6.036 13.482-13.482 13.482z"/></g><path d="m82.923 244.486-29.222-29.223 16.433-16.433 12.789 12.789 33.371-33.371 16.433 16.434z" fill="#369cef"/><path d="m82.923 319.939-29.222-29.223 16.433-16.432 12.789 12.789 33.371-33.371 16.433 16.433z" fill="#369cef"/><path d="m82.923 395.393-29.222-29.223 16.433-16.433 12.789 12.789 33.371-33.37 16.433 16.433z" fill="#369cef"/><path d="m512 252.89v3.11c0 98.28-55.39 183.63-136.65 226.53-17.62 9.3-36.45 16.61-56.2 21.62-20.2 5.13-41.36 7.85-63.15 7.85h-3.11c-.33 0-.65-.01-.97-.04-7.38-.49-13.21-6.64-13.21-14.14v-244.93c0-7.83 6.35-14.18 14.18-14.18h244.93c7.52 0 13.68 5.86 14.15 13.26.02.3.03.61.03.92z" fill="#f4863d"/><path d="m512 252.89v3.11c0 98.28-55.39 183.63-136.65 226.53v-243.82h122.47c7.52 0 13.68 5.86 14.15 13.26.02.3.03.61.03.92z" fill="#ec781b"/><path d="m409.176 238.709v55.303c0 6.615-5.37 11.986-11.985 11.986h-43.672c-6.615 0-11.985-5.371-11.985-11.986v-55.303z" fill="#fdf0b2"/><path d="m409.176 238.709v55.303c0 6.615-5.37 11.986-11.985 11.986h-21.836v-67.289z" fill="#fede8c"/></svg>