<svg height="512pt" viewBox="0 0 512 512" width="512pt" xmlns="http://www.w3.org/2000/svg"><path d="m512 256c0 141.386719-114.613281 256-256 256s-256-114.613281-256-256 114.613281-256 256-256 256 114.613281 256 256zm0 0" fill="#65b2ff"/><path d="m512 256c0 141.378906-114.621094 256-256 256s-256-114.621094-256-256c0-46.21875 12.25-89.570312 33.679688-127 44.121093 77.070312 127.160156 129 222.320312 129s178.210938-51.929688 222.320312-129c21.429688 37.429688 33.679688 80.78125 33.679688 127zm0 0" fill="#0f9be8"/><path d="m481.261719 377.699219v.011719c-43.292969 79.96875-127.941407 134.289062-225.261719 134.289062s-181.96875-54.320312-225.261719-134.289062v-.011719zm0 0" fill="#0066e8"/><path d="m347.199219 403.21875c-.75 10.75-9.230469 19.621094-19.949219 20.800781-10.578125 1.160157-19.898438-5.007812-23.511719-14.070312h-1.558593c-2.539063 9.679687-11.351563 16.820312-21.820313 16.820312-10.480469 0-19.28125-7.140625-21.820313-16.820312h-1.480468c-.019532.101562-.046875.191406-.078125.28125v.007812c-2.640625 9.53125-11.371094 16.53125-21.742188 16.53125-4.898437 0-9.4375-1.570312-13.136719-4.230469-3.703124-2.648437-6.550781-6.398437-8.113281-10.769531-6.269531 11.480469-20.816406 15.449219-32.046875 8.75l-58.3125-34.828125c-24.21875 0-48.167968-5.050781-70.328125-14.832031l-4.269531-1.890625-28.609375-12.617188v-.011718c-13.140625-30.808594-20.421875-64.71875-20.421875-100.339844 0-13.320312 1.019531-26.410156 2.980469-39.191406l86.917969 47.179687 27.421874 14.890625 133.601563-35.589844h.007813l6.050781 9.660157 16.347656 26.121093 31.613281 50.507813.136719.230469 34.132813 54.53125c.5.421875.988281.871094 1.449218 1.339844 4.429688 4.429687 7.019532 10.679687 6.539063 17.539062zm0 0" fill="#ffc0a4"/><path d="m347.199219 403.21875c-.746094 10.757812-9.230469 19.621094-19.953125 20.800781-10.582032 1.160157-19.894532-5.007812-23.503906-14.070312h-1.558594c-2.542969 9.679687-11.347656 16.820312-21.824219 16.820312s-19.285156-7.140625-21.820313-16.820312h-1.472656c-.023437.097656-.054687.195312-.085937.289062v-157.289062l82.234375 131.390625c5.292968 4.457031 8.515625 11.300781 7.984375 18.878906zm0 0" fill="#ffa87a"/><path d="m412.378906 378.128906c-23.929687 5.019532-139.050781-99.058594-139.050781-99.058594l-16.347656 6.050782-44.410157 16.449218c-1.871093.660157-3.800781.980469-5.699218.980469-5.679688 0-11.152344-2.832031-14.371094-7.8125-5.511719-8.488281-2.5-19.867187 6.480469-24.519531l58-30.070312 3.980469-2.070313c8.109374-4.199219 17.667968-4.539063 26.050781-.929687l97.066406 41.75zm0 0" fill="#c55835"/><path d="m512 256c0 33.429688-6.410156 65.371094-18.070312 94.648438l-10.679688 4.710937c-7.28125 3.210937-14.660156 6.179687-22.121094 8.890625-15.738281 5.71875-31.859375 10.320312-48.207031 13.769531-.183594.039063-.363281.082031-.542969.109375-23.527344 4.941406-49.007812 6.132813-73.167968 6.210938l-34.132813-54.53125-31.75-50.738282-16.347656 6.050782v-44.972656l3.980469-2.070313c8.109374-4.199219 17.667968-4.539063 26.050781-.929687l97.066406 41.75 36.183594-19.636719 87.886719-47.710938c2.53125 14.429688 3.851562 29.289063 3.851562 44.449219zm0 0" fill="#e3835a"/><path d="m512 256c0 33.429688-6.410156 65.371094-18.070312 94.648438-2.71875 6.839843-5.738282 13.542968-9.019532 20.082031l-18.539062 6.96875-5.242188-13.449219-40.867187-104.988281-4.890625-12.5625 89.207031-52.109375c1.382813 5.582031 2.570313 11.238281 3.570313 16.960937 2.53125 14.429688 3.851562 29.289063 3.851562 44.449219zm0 0" fill="#20273a"/><path d="m96.628906 246.699219-6.730468 17.289062-40.867188 104.980469-3.402344 8.730469-18.539062-6.96875v-.011719c-2.371094-4.707031-4.589844-9.488281-6.667969-14.367188v-.011718c-13.140625-30.808594-20.421875-64.71875-20.421875-100.339844 0-13.320312 1.019531-26.410156 2.980469-39.191406v-.007813c1.160156-7.519531 2.640625-14.921875 4.441406-22.210937zm0 0" fill="#474f6f"/><g fill="#fff"><path d="m92.363281 197.742188h-1.523437c-6.753906 0-12.230469-5.472657-12.230469-12.226563v-1.523437h-8.714844v1.523437c0 6.753906-5.472656 12.226563-12.226562 12.226563h-1.523438v8.71875h1.523438c6.753906 0 12.226562 5.472656 12.226562 12.226562v1.523438h8.714844v-1.523438c0-6.753906 5.476563-12.226562 12.230469-12.226562h1.523437zm0 0"/><path d="m157.015625 68.613281h-1.523437c-6.753907 0-12.226563-5.472656-12.226563-12.226562v-1.523438h-8.714844v1.523438c0 6.753906-5.476562 12.226562-12.226562 12.226562h-1.527344v8.714844h1.527344c6.75 0 12.226562 5.476563 12.226562 12.230469v1.523437h8.714844v-1.523437c0-6.753906 5.472656-12.230469 12.226563-12.230469h1.523437zm0 0"/><path d="m391.199219 68.613281h-1.523438c-6.75 0-12.226562-5.472656-12.226562-12.226562v-1.523438h-8.714844v1.523438c0 6.753906-5.472656 12.226562-12.226563 12.226562h-1.527343v8.714844h1.527343c6.753907 0 12.226563 5.476563 12.226563 12.230469v1.523437h8.714844v-1.523437c0-6.753906 5.476562-12.230469 12.226562-12.230469h1.523438zm0 0"/><path d="m274.109375 142.75h-1.523437c-6.753907 0-12.226563-5.472656-12.226563-12.226562v-1.523438h-8.71875v1.523438c0 6.753906-5.472656 12.226562-12.226563 12.226562h-1.523437v8.71875h1.523437c6.753907 0 12.226563 5.472656 12.226563 12.226562v1.523438h8.71875v-1.523438c0-6.753906 5.472656-12.226562 12.226563-12.226562h1.523437zm0 0"/><path d="m455.855469 197.742188h-1.523438c-6.753906 0-12.226562-5.472657-12.226562-12.226563v-1.523437h-8.714844v1.523437c0 6.753906-5.476563 12.226563-12.230469 12.226563h-1.523437v8.71875h1.523437c6.753906 0 12.230469 5.472656 12.230469 12.226562v1.523438h8.714844v-1.523438c0-6.753906 5.472656-12.226562 12.226562-12.226562h1.523438zm0 0"/></g></svg>