<svg id="Capa_1" enable-background="new 0 0 512 512" height="512" viewBox="0 0 512 512" width="512" xmlns="http://www.w3.org/2000/svg"><path d="m478.32 129-.26 254.45c-44.18 76.82-127.08 128.55-222.06 128.55-141.38 0-256-114.62-256-256s114.62-256 256-256c95.16 0 178.2 51.93 222.32 129z" fill="#66e1d2"/><path d="m478.32 129-.26 254.45c-18.94 32.93-44.99 61.25-76.06 82.86-41.41 28.8-91.73 45.69-146 45.69s-104.59-16.89-146-45.69c-66.48-46.24-110-123.2-110-210.31 0-46.22 12.25-89.57 33.68-127 44.12 77.07 127.16 129 222.32 129s178.21-51.93 222.32-129z" fill="#00cec9"/><path d="m227.04 166.232v180.181l-89.699 11-94.382-11v-70.424l37.092-83.495 8.726-19.65c1.785-4.02 5.77-6.61 10.168-6.61h128.095z" fill="#ffe400"/><g fill="#323b5a"><path d="m169.711 306.025h29.227c1.915 0 3.468-1.553 3.468-3.468v-7.215c0-1.915-1.553-3.468-3.468-3.468h-29.227c-1.915 0-3.468 1.553-3.468 3.468v7.215c0 1.916 1.553 3.468 3.468 3.468z"/><path d="m108.951 192.491-37.04 83.492h-28.952l37.089-83.492z"/><path d="m202.887 275.983h-104.151l35.742-83.492h68.409z"/></g><path d="m512 256c0 31.83-5.81 62.3-16.43 90.41h-268.53v-199.44c0-9.93 8.04-17.97 17.97-17.97h233.31c21.43 37.43 33.68 80.78 33.68 127z" fill="#4e689b"/><path d="m512 256c0 31.83-5.81 62.3-16.43 90.41h-198.43v-217.41h181.18c21.43 37.43 33.68 80.78 33.68 127z" fill="#374c81"/><path d="m512 256c0 31.83-5.81 62.3-16.43 90.41h-122.74v-217.41h105.49c21.43 37.43 33.68 80.78 33.68 127z" fill="#323b5a"/><path d="m227.04 383.454h-173.859c-5.646 0-10.222-4.577-10.222-10.222v-26.819h193.38c15.725 0 20.947 21.058 7.044 28.405z" fill="#fed110"/><path d="m512 346.41v26.827c0 5.637-4.575 10.212-10.224 10.212h-274.741v-37.039z" fill="#fff"/><path d="m495.57 346.41c-4.86 12.88-10.73 25.26-17.51 37.04h-180.92v-37.04z" fill="#d1f6ff"/><path d="m495.57 346.41c-4.86 12.88-10.73 25.26-17.51 37.04h-105.23v-37.04z" fill="#b3f4ff"/><path d="m65.95 311.74c0 12.696-10.295 22.991-22.991 22.991v-45.982c12.696 0 22.991 10.295 22.991 22.991z" fill="#fff"/><circle cx="143.232" cy="384.757" fill="#323b5a" r="48.743"/><ellipse cx="143.232" cy="384.757" fill="#fff" rx="20.724" ry="20.724" transform="matrix(.707 -.707 .707 .707 -230.113 213.973)"/><circle cx="371.934" cy="384.757" fill="#323b5a" r="48.743"/><ellipse cx="371.934" cy="384.757" fill="#fff" rx="20.724" ry="20.724" transform="matrix(.263 -.965 .965 .263 -97.028 642.533)"/><path d="m71.54 433.5c46.57 48.39 112 78.5 184.46 78.5s137.89-30.11 184.46-78.5z" fill="#374c81"/><path d="m71.54 433.5c46.57 48.39 112 78.5 184.46 78.5v-78.5z" fill="#323b5a"/></svg>