<svg height="512pt" viewBox="0 0 512 512" width="512pt" xmlns="http://www.w3.org/2000/svg"><path d="m512 256c0 91.609375-48.121094 171.980469-120.46875 217.21875h-.011719c-12.878906 8.050781-26.507812 14.992188-40.789062 20.679688-29.300781 11.679687-61.269531 18.101562-94.730469 18.101562-141.378906 0-256-114.621094-256-256s114.621094-256 256-256 256 114.621094 256 256zm0 0" fill="#68fcdf"/><path d="m512 256c0 141.378906-114.621094 256-256 256s-256-114.621094-256-256c0-46.21875 12.25-89.570312 33.679688-127 44.121093 77.070312 127.160156 129 222.320312 129s178.210938-51.929688 222.320312-129c21.429688 37.429688 33.679688 80.78125 33.679688 127zm0 0" fill="#10e2c4"/><path d="m481.261719 377.699219v.011719c-43.292969 79.96875-127.941407 134.289062-225.261719 134.289062s-181.96875-54.320312-225.261719-134.289062v-.011719zm0 0" fill="#1aba9f"/><path d="m320.566406 176.230469v53.882812h-225.507812v-53.882812c0-11.3125 9.171875-20.484375 20.496094-20.484375h184.515624c11.324219 0 20.496094 9.171875 20.496094 20.484375zm0 0" fill="#ff9f00"/><path d="m320.566406 176.230469v53.882812h-112.753906v-74.367187h92.257812c11.324219 0 20.496094 9.171875 20.496094 20.484375zm0 0" fill="#ed771b"/><path d="m306.714844 184.339844v197.167968h-196.84375v-246.058593h147.953125c19.089843 19.101562 29.800781 29.800781 48.890625 48.890625zm0 0" fill="#fff"/><path d="m306.714844 184.339844v197.167968h-98.421875v-246.058593h49.53125c19.089843 19.101562 29.800781 29.800781 48.890625 48.890625zm0 0" fill="#d0f6ff"/><path d="m257.824219 135.453125 48.890625 48.890625h-50.183594zm0 0" fill="#8fc9f7"/><path d="m272.800781 199.605469c0 2.382812-.960937 4.542969-2.527343 6.105469-1.5625 1.566406-3.722657 2.527343-6.105469 2.527343h-111.757813c-4.765625 0-8.625-3.867187-8.625-8.632812 0-2.382813.960938-4.539063 2.527344-6.105469 1.554688-1.5625 3.714844-2.527344 6.097656-2.527344h111.761719c4.765625 0 8.628906 3.867188 8.628906 8.632813zm0 0" fill="#474f6f"/><path d="m264.171875 208.238281h-55.882813v-17.265625h55.882813c4.765625 0 8.632813 3.867188 8.632813 8.632813 0 2.382812-.964844 4.542969-2.527344 6.105469-1.566406 1.566406-3.722656 2.527343-6.105469 2.527343zm0 0" fill="#20273a"/><path d="m320.570312 230.109375v273.671875c-1.179687.296875-2.359374.597656-3.539062.890625-19.5625 4.789063-40 7.328125-61.03125 7.328125-48.429688 0-93.71875-13.449219-132.339844-36.828125h-.011718c-10-6.050781-19.546876-12.761719-28.589844-20.09375v-224.96875zm0 0" fill="#ed771b"/><path d="m320.570312 230.109375v273.671875c-20.628906 5.367188-42.269531 8.21875-64.570312 8.21875-16.46875 0-32.578125-1.558594-48.191406-4.539062v-277.351563zm0 0" fill="#c55835"/><path d="m317.03125 504.671875c-19.5625 4.789063-40 7.328125-61.03125 7.328125-48.429688 0-93.71875-13.449219-132.339844-36.828125 3.398438-1.183594 7.03125-1.8125 10.761719-1.8125h146.777344c12.671875 0 24.222656 7.25 29.710937 18.652344zm0 0" fill="#ff9f00"/><path d="m317.03125 504.679688c-19.5625 4.78125-40 7.320312-61.03125 7.320312-16.480469 0-32.589844-1.550781-48.191406-4.53125v-34.109375h73.390625c12.671875 0 24.222656 7.25 29.710937 18.652344zm0 0" fill="#ed771b"/><path d="m196.621094 285.382812h5.589844v96.125h-5.589844zm0 0" fill="#fff"/><path d="m224.128906 285.386719c0 9.007812-7.308594 16.304687-16.316406 16.304687s-16.316406-7.296875-16.316406-16.304687c0-9.019531 7.3125-16.316407 16.316406-16.316407 9.007812 0 16.316406 7.300782 16.316406 16.316407zm0 0" fill="#ffd112"/><path d="m224.128906 285.386719c0 9.007812-7.308594 16.304687-16.316406 16.304687v-32.621094c9.007812 0 16.316406 7.300782 16.316406 16.316407zm0 0" fill="#ff9f00"/><path d="m216.210938 285.382812c0-4.636718-3.761719-8.394531-8.398438-8.394531s-8.394531 3.757813-8.394531 8.394531c0 4.636719 3.757812 8.394532 8.394531 8.394532s8.398438-3.757813 8.398438-8.394532zm0 0" fill="#fff"/><path d="m216.210938 285.382812c0 4.636719-3.761719 8.390626-8.398438 8.390626v-16.785157c4.632812 0 8.398438 3.753907 8.398438 8.394531zm0 0" fill="#d0f6ff"/><path d="m456.820312 297.570312-65.289062 175.648438h-.011719c-12.878906 8.050781-26.507812 14.992188-40.789062 20.679688l-177.710938-66.058594 96.089844-258.5 155.429687 57.769531c12.601563 27.519531 19.671876 42.949219 32.28125 70.460937zm0 0" fill="#fff"/><path d="m456.820312 297.570312-65.289062 175.648438c-12.882812 8.050781-26.519531 14.992188-40.800781 20.679688l-74.308594-27.617188 96.089844-258.511719 52.027343 19.339844c12.601563 27.519531 19.671876 42.949219 32.28125 70.460937zm0 0" fill="#d0f6ff"/><path d="m424.539062 227.113281 32.273438 70.457031-52.722656-19.597656zm0 0" fill="#8fc9f7"/><path d="m409.734375 315.132812c-.929687 2.503907-2.78125 4.394532-5.039063 5.425782-2.253906 1.035156-4.894531 1.203125-7.398437.273437l-117.414063-43.640625c-5.007812-1.863281-7.550781-7.429687-5.691406-12.4375.933594-2.503906 2.785156-4.394531 5.039063-5.429687 2.246093-1.035157 4.890625-1.203125 7.394531-.273438l117.414062 43.640625c5.007813 1.859375 7.558594 7.433594 5.695313 12.441406zm0 0" fill="#474f6f"/><path d="m397.296875 320.828125-58.707031-21.820313 6.738281-18.136718 58.707031 21.820312c5.007813 1.859375 7.5625 7.433594 5.699219 12.4375-.929687 2.503906-2.78125 4.394532-5.039063 5.429688-2.253906 1.035156-4.894531 1.203125-7.398437.269531zm0 0" fill="#20273a"/><path d="m394.660156 355.691406c-.929687 2.503906-2.785156 4.394532-5.039062 5.425782-2.253906 1.035156-4.898438 1.203124-7.402344.273437l-117.414062-43.640625c-5.003907-1.863281-7.546876-7.429688-5.6875-12.4375.929687-2.503906 2.785156-4.394531 5.039062-5.429688 2.246094-1.035156 4.886719-1.203124 7.390625-.273437l117.414063 43.640625c5.007812 1.863281 7.5625 7.433594 5.699218 12.441406zm0 0" fill="#474f6f"/><path d="m382.21875 361.390625-58.707031-21.820313 6.742187-18.140624 58.707032 21.824218c5.007812 1.859375 7.5625 7.433594 5.699218 12.4375-.929687 2.503906-2.78125 4.394532-5.039062 5.429688-2.253906 1.03125-4.898438 1.199218-7.402344.269531zm0 0" fill="#20273a"/><path d="m379.585938 396.25c-.933594 2.503906-2.785157 4.394531-5.039063 5.429688-2.257813 1.03125-4.898437 1.199218-7.402344.269531l-117.414062-43.640625c-5.007813-1.859375-7.550781-7.429688-5.691407-12.4375.933594-2.503906 2.785157-4.394532 5.039063-5.425782 2.246094-1.039062 4.890625-1.207031 7.394531-.273437l117.414063 43.640625c5.007812 1.859375 7.558593 7.429688 5.699219 12.4375zm0 0" fill="#474f6f"/><path d="m367.144531 401.949219-58.707031-21.820313 6.742188-18.140625 58.707031 21.824219c5.007812 1.859375 7.558593 7.433594 5.699219 12.4375-.933594 2.503906-2.785157 4.394531-5.039063 5.429688-2.257813 1.03125-4.898437 1.199218-7.402344.269531zm0 0" fill="#20273a"/><path d="m364.511719 436.808594c-.933594 2.503906-2.785157 4.394531-5.039063 5.429687-2.257812 1.03125-4.898437 1.199219-7.402344.269531l-117.414062-43.640624c-5.007812-1.859376-7.550781-7.429688-5.691406-12.4375.929687-2.503907 2.785156-4.394532 5.039062-5.425782 2.246094-1.039062 4.890625-1.207031 7.394532-.277344l117.414062 43.640626c5.003906 1.863281 7.558594 7.4375 5.699219 12.441406zm0 0" fill="#474f6f"/><path d="m352.070312 442.507812-58.707031-21.820312 6.742188-18.136719 58.707031 21.816407c5.003906 1.863281 7.558594 7.4375 5.699219 12.441406-.933594 2.503906-2.785157 4.394531-5.039063 5.429687-2.257812 1.035157-4.902344 1.203125-7.402344.269531zm0 0" fill="#20273a"/></svg>