<svg height="512pt" viewBox="0 0 512 512" width="512pt" xmlns="http://www.w3.org/2000/svg"><path d="m512 256c0 141.386719-114.613281 256-256 256s-256-114.613281-256-256 114.613281-256 256-256 256 114.613281 256 256zm0 0" fill="#65b2ff"/><path d="m512 256c0 141.378906-114.621094 256-256 256s-256-114.621094-256-256c0-46.21875 12.25-89.570312 33.679688-127 44.121093 77.070312 127.160156 129 222.320312 129s178.210938-51.929688 222.320312-129c21.429688 37.429688 33.679688 80.78125 33.679688 127zm0 0" fill="#0f9be8"/><path d="m481.261719 377.699219v.011719c-21.773438 40.21875-54.011719 73.960937-93.070313 97.550781-11.03125 6.667969-22.601562 12.527343-34.640625 17.488281-11.171875 4.609375-22.730469 8.449219-34.628906 11.449219-20.132813 5.101562-41.210937 7.800781-62.921875 7.800781-97.320312 0-181.96875-54.320312-225.261719-134.289062v-.011719zm0 0" fill="#0066e8"/><path d="m193.078125 356.78125v147.429688c-24.707031-6.242188-48-16.089844-69.269531-28.941407v-118.488281zm0 0" fill="#dd1265"/><path d="m193.078125 356.78125v147.429688c-11.898437-3-23.46875-6.839844-34.628906-11.449219v-135.980469zm0 0" fill="#ba0d5c"/><path d="m290.640625 356.78125v152.890625c-11.332031 1.539063-22.890625 2.328125-34.640625 2.328125s-23.308594-.789062-34.640625-2.328125v-152.890625zm0 0" fill="#10e2c4"/><path d="m290.640625 356.78125v152.890625c-11.332031 1.539063-22.890625 2.328125-34.640625 2.328125v-155.21875zm0 0" fill="#1aba9f"/><path d="m388.191406 320.371094v154.890625c-21.261718 12.859375-44.550781 22.699219-69.269531 28.9375v-183.828125zm0 0" fill="#95d600"/><path d="m388.191406 320.371094v154.890625c-11.03125 6.667969-22.601562 12.527343-34.640625 17.488281v-172.378906zm0 0" fill="#85af12"/><path d="m417.140625 220.609375v147.070313l-43.082031-43.078126-87.269532 87.257813-107.839843-51.800781-105.808594 75.101562c-1.242187-1.269531-2.46875-2.550781-3.679687-3.839844-1.289063-1.378906-2.570313-2.769531-3.839844-4.171874l113.328125-149.269532 87.109375 31.0625 46.171875-46.171875-42.160157-42.160156zm0 0" fill="#ffd112"/><path d="m417.140625 220.609375v147.070313l-43.082031-43.078126-87.269532 87.257813-107.839843-51.800781-105.808594 75.101562c-1.242187-1.269531-2.46875-2.550781-3.679687-3.839844l117.070312-112.332031 93.230469 37.792969zm0 0" fill="#ff9f00"/><path d="m450.503906 222.332031c0 17.496094-14.183594 31.671875-31.671875 31.671875s-31.671875-14.175781-31.671875-31.671875c0-17.488281 14.183594-31.671875 31.671875-31.671875 17.488281.003906 31.671875 14.183594 31.671875 31.671875zm0 0" fill="#fff"/><path d="m450.503906 222.332031c0 17.496094-14.183594 31.671875-31.671875 31.671875v-63.339844c17.488281 0 31.671875 14.179688 31.671875 31.667969zm0 0" fill="#d0f6ff"/><path d="m305.8125 99.578125c0 2.21875-.144531 4.414063-.421875 6.546875-1.167969 8.855469-4.648437 16.980469-9.835937 23.742188-2.671876 3.472656-5.789063 6.59375-9.273438 9.257812-6.753906 5.183594-14.867188 8.675781-23.726562 9.832031-1.859376.242188-3.761719.394531-5.691407.417969-.289062.015625-.574219.015625-.863281.015625-2.21875 0-4.414062-.152344-6.546875-.433594-8.859375-1.15625-16.972656-4.648437-23.734375-9.835937-3.480469-2.664063-6.601562-5.78125-9.265625-9.265625-5.1875-6.757813-8.675781-14.875-9.835937-23.730469-.277344-2.136719-.429688-4.332031-.429688-6.550781 0-2.222657.152344-4.410157.429688-6.554688 1.160156-8.855469 4.648437-16.972656 9.835937-23.722656 2.664063-3.484375 5.785156-6.601563 9.257813-9.277344 6.761718-5.183593 14.882812-8.667969 23.738281-9.832031 2.136719-.28125 4.332031-.425781 6.550781-.425781.285156 0 .574219 0 .863281.015625 1.929688.023437 3.828125.167968 5.691407.410156 8.855468 1.164062 16.980468 4.648438 23.742187 9.832031 3.472656 2.671875 6.585937 5.785157 9.257813 9.261719 5.183593 6.757812 8.667968 14.882812 9.832031 23.738281.28125 2.144531.425781 4.332031.425781 6.558594zm0 0" fill="#eb7722"/><path d="m305.8125 99.578125c0 2.21875-.144531 4.414063-.421875 6.546875-1.167969 8.855469-4.648437 16.980469-9.835937 23.742188-2.671876 3.472656-5.789063 6.59375-9.273438 9.257812-6.753906 5.183594-14.867188 8.675781-23.726562 9.832031-1.859376.242188-3.761719.394531-5.691407.417969v-99.597656c1.929688.023437 3.832031.167968 5.691407.410156 8.859374 1.167969 16.980468 4.648438 23.742187 9.835938 3.476563 2.671874 6.585937 5.78125 9.257813 9.257812 5.1875 6.757812 8.667968 14.882812 9.835937 23.738281.277344 2.144531.421875 4.332031.421875 6.558594zm0 0" fill="#ffd112"/><path d="m296.023438 99.578125c0 1.777344-.121094 3.542969-.347657 5.261719-.929687 7.113281-3.730469 13.640625-7.894531 19.066406-2.152344 2.796875-4.65625 5.300781-7.449219 7.445312-5.429687 4.164063-11.953125 6.964844-19.0625 7.894532-1.441406.1875-2.914062.304687-4.40625.332031-.289062.015625-.574219.015625-.863281.015625-1.777344 0-3.542969-.121094-5.261719-.347656-7.117187-.929688-13.632812-3.730469-19.0625-7.894532-2.800781-2.144531-5.304687-4.648437-7.449219-7.449218-4.164062-5.429688-6.964843-11.949219-7.894531-19.0625-.226562-1.71875-.347656-3.484375-.347656-5.261719 0-1.789063.121094-3.550781.347656-5.269531.929688-7.109375 3.730469-13.632813 7.894531-19.0625 2.144532-2.792969 4.648438-5.296875 7.441407-7.449219 5.429687-4.164063 11.953125-6.964844 19.070312-7.894531 1.71875-.226563 3.484375-.347656 5.261719-.347656.289062 0 .574219 0 .863281.015624 1.492188.027344 2.964844.144532 4.40625.332032 7.109375.929687 13.640625 3.730468 19.070313 7.894531 2.792968 2.152344 5.292968 4.648437 7.441406 7.441406 4.164062 5.429688 6.964844 11.960938 7.894531 19.070313.226563 1.71875.347657 3.480468.347657 5.269531zm0 0" fill="#a63914"/><path d="m296.023438 99.578125c0 1.777344-.121094 3.542969-.347657 5.261719-.929687 7.113281-3.730469 13.640625-7.894531 19.066406-2.152344 2.796875-4.65625 5.300781-7.449219 7.445312-5.429687 4.164063-11.953125 6.964844-19.0625 7.894532-1.441406.1875-2.914062.304687-4.40625.332031v-80.011719c1.492188.03125 2.964844.144532 4.40625.335938 7.109375.929687 13.640625 3.730468 19.070313 7.894531 2.792968 2.148437 5.292968 4.648437 7.441406 7.441406 4.164062 5.425781 6.964844 11.960938 7.894531 19.070313.226563 1.71875.347657 3.480468.347657 5.269531zm0 0" fill="#eb7722"/><path d="m288.386719 99.578125c0 1.4375-.097657 2.867187-.28125 4.253906-.757813 5.761719-3.019531 11.046875-6.386719 15.4375-1.742188 2.253907-3.773438 4.285157-6.027344 6.015625-4.390625 3.371094-9.675781 5.640625-15.429687 6.390625-1.113281.144531-2.246094.234375-3.398438.265625-.289062.007813-.574219.011719-.863281.011719-1.4375 0-2.867188-.097656-4.253906-.277344-5.761719-.75-11.039063-3.023437-15.429688-6.390625-2.261718-1.734375-4.289062-3.761718-6.023437-6.023437-3.371094-4.394531-5.632813-9.667969-6.390625-15.429688-.179688-1.386719-.28125-2.816406-.28125-4.253906 0-1.445313.101562-2.871094.28125-4.261719.757812-5.753906 3.023437-11.039062 6.390625-15.429687 1.734375-2.253907 3.761719-4.285157 6.015625-6.027344 4.398437-3.367187 9.675781-5.628906 15.4375-6.386719 1.386718-.183594 2.816406-.28125 4.253906-.28125.289062 0 .574219.007813.863281.015625 1.152344.03125 2.285157.121094 3.398438.265625 5.753906.757813 11.039062 3.019532 15.429687 6.386719 2.261719 1.742187 4.285156 3.761719 6.027344 6.027344 3.367188 4.390625 5.628906 9.675781 6.386719 15.429687.179687 1.390625.28125 2.816406.28125 4.261719zm0 0" fill="#ffd112"/><path d="m288.386719 99.578125c0 1.4375-.097657 2.867187-.28125 4.253906-.757813 5.761719-3.019531 11.046875-6.386719 15.4375-1.742188 2.253907-3.773438 4.285157-6.027344 6.015625-4.390625 3.371094-9.675781 5.640625-15.429687 6.390625-1.113281.144531-2.246094.234375-3.398438.265625v-64.734375c1.152344.027344 2.285157.121094 3.398438.265625 5.753906.753906 11.039062 3.019532 15.429687 6.386719 2.261719 1.742187 4.285156 3.761719 6.027344 6.027344 3.367188 4.390625 5.628906 9.675781 6.386719 15.425781.179687 1.394531.28125 2.820312.28125 4.265625zm0 0" fill="#ffe955"/><path d="m256.863281 95.535156c-1.628906-.484375-2.757812-1.007812-2.757812-1.984375 0-.824219.667969-1.136719 1.683593-1.136719.324219 0 .6875.03125 1.074219.09375 1.597657.234376 3.640625.921876 5.535157 1.738282 1.609374.695312 3.480468.007812 4.238281-1.574219l.507812-1.074219c.808594-1.695312.019531-3.734375-1.71875-4.421875-1.066406-.414062-2.210937-.773437-3.386719-1.042969-1.480468-.34375-2.527343-1.652343-2.527343-3.164062v-.222656c0-.898438-.363281-1.710938-.953125-2.300782-.453125-.453124-1.039063-.769531-1.695313-.890624-.199219-.039063-.402343-.0625-.605469-.0625-1.796874 0-3.25 1.460937-3.25 3.253906v.492187c0 1.386719-.832031 2.671875-2.136718 3.144531-3.78125 1.363282-6.046875 4.199219-6.046875 8.023438 0 7.253906 8.054687 7.714844 12.035156 9.015625 1.304687.429687 2.175781.945313 2.175781 1.832031 0 .96875-.847656 1.40625-2.175781 1.40625-.007813 0-.007813 0-.011719 0-1.992187 0-5.042968-.980468-7.65625-2.398437-1.613281-.878907-3.617187-.21875-4.429687 1.429687l-.445313.902344c-.78125 1.574219-.167968 3.5 1.394532 4.308594 1.503906.785156 3.15625 1.40625 4.851562 1.855468 1.4375.378907 2.445312 1.664063 2.445312 3.148438v.621094c0 .902344.359376 1.710937.953126 2.292968.582031.589844 1.398437.953126 2.292968.953126.203125 0 .410156-.019532.605469-.058594 1.515625-.28125 2.652344-1.597656 2.652344-3.1875v-.53125c0-1.414063.90625-2.6875 2.261719-3.09375 3.800781-1.144532 6.542968-3.769532 6.542968-8.117188 0-7.140625-7.320312-8.039062-11.453125-9.25zm0 0" fill="#a63914"/><g fill="#fff"><path d="m256 184.078125c-2.761719 0-5-2.234375-5-5v-15.84375c0-2.761719 2.238281-5 5-5s5 2.238281 5 5v15.84375c0 2.765625-2.238281 5-5 5zm0 0"/><path d="m256 40.917969c-2.761719 0-5-2.238281-5-5v-15.84375c0-2.761719 2.238281-5 5-5s5 2.238281 5 5v15.84375c0 2.761719-2.238281 5-5 5zm0 0"/><path d="m199.78125 160.789062c-1.28125 0-2.5625-.488281-3.539062-1.464843-1.953126-1.953125-1.949219-5.121094.003906-7.070313l11.207031-11.195312c1.953125-1.953125 5.121094-1.949219 7.070313.003906 1.953124 1.953125 1.949218 5.121094-.003907 7.070312l-11.207031 11.195313c-.972656.976563-2.253906 1.460937-3.53125 1.460937zm0 0"/><path d="m301.011719 59.570312c-1.277344 0-2.558594-.488281-3.535157-1.464843-1.953124-1.953125-1.953124-5.117188 0-7.070313l11.207032-11.207031c1.953125-1.953125 5.117187-1.953125 7.070312-.003906 1.953125 1.953125 1.953125 5.121093.003906 7.074219l-11.207031 11.207031c-.980469.976562-2.257812 1.464843-3.539062 1.464843zm0 0"/><path d="m192.335938 104.582031h-15.832032c-2.761718 0-5-2.238281-5-5s2.238282-5 5-5h15.832032c2.761718 0 5 2.238281 5 5s-2.238282 5-5 5zm0 0"/><path d="m335.496094 104.582031h-15.832032c-2.761718 0-5-2.238281-5-5s2.238282-5 5-5h15.832032c2.761718 0 5 2.238281 5 5s-2.238282 5-5 5zm0 0"/><path d="m210.988281 59.570312c-1.28125 0-2.5625-.488281-3.539062-1.464843l-11.207031-11.207031c-1.949219-1.953126-1.949219-5.121094.003906-7.074219 1.949218-1.949219 5.117187-1.949219 7.070312.003906l11.207032 11.207031c1.953124 1.953125 1.953124 5.117188 0 7.070313-.976563.976562-2.257813 1.464843-3.535157 1.464843zm0 0"/><path d="m312.21875 160.789062c-1.277344 0-2.558594-.484374-3.53125-1.460937l-11.207031-11.195313c-1.953125-1.949218-1.957031-5.117187-.003907-7.070312 1.953126-1.953125 5.117188-1.957031 7.070313-.003906l11.207031 11.195312c1.953125 1.949219 1.957032 5.117188.003906 7.070313-.976562.976562-2.257812 1.464843-3.539062 1.464843zm0 0"/></g></svg>