<svg height="512pt" viewBox="0 0 512 512" width="512pt" xmlns="http://www.w3.org/2000/svg"><path d="m512 256c0 141.386719-114.613281 256-256 256s-256-114.613281-256-256 114.613281-256 256-256 256 114.613281 256 256zm0 0" fill="#ffe955"/><path d="m512 256c0 141.378906-114.621094 256-256 256s-256-114.621094-256-256c0-46.21875 12.25-89.570312 33.679688-127 44.121093 77.070312 127.160156 129 222.320312 129s178.210938-51.929688 222.320312-129c21.429688 37.429688 33.679688 80.78125 33.679688 127zm0 0" fill="#ffd112"/><path d="m481.261719 377.699219v.011719c-43.292969 79.96875-127.941407 134.289062-225.261719 134.289062s-181.96875-54.320312-225.261719-134.289062v-.011719zm0 0" fill="#ff9f00"/><path d="m268.609375 318.640625-29.320313-2.441406-23.519531-1.960938 15.242188-18.007812 19.007812-22.46875c4.339844-5.121094 4.019531-12.710938-.71875-17.453125l-15.621093-15.617188c-4.75-4.742187-12.339844-5.0625-17.460938-.730468l-22.457031 19.007812-18.011719 15.242188-1.960938-23.519532-2.4375-29.3125c-.5625-6.6875-6.152343-11.828125-12.863281-11.828125h-22.089843c-6.707032 0-12.296876 5.140625-12.859376 11.828125l-2.4375 29.3125-1.960937 23.519532-18.011719-15.242188-22.46875-19.007812c-5.121094-4.332032-12.710937-4.011719-17.449218.730468l-15.621094 15.617188c-4.738282 4.742187-5.058594 12.332031-.71875 17.453125l19.007812 22.46875 15.230469 18.007812-23.507813 1.960938-29.320312 2.441406c-6.691406.558594-11.832031 6.148437-11.832031 12.859375v9.480469c3.039062 8.648437 6.53125 17.089843 10.460937 25.28125.449219.089843.898438.148437 1.371094.1875l29.320312 2.441406 23.507813 1.960937-15.230469 18-14.957031 17.679688c9.578125 13.160156 20.378906 25.367188 32.238281 36.46875l19.96875-16.890625 18.011719-15.238281 1.960937 23.519531 2.4375 29.320313c.5625 6.6875 6.152344 11.828124 12.859376 11.828124h22.089843c6.710938 0 12.300781-5.140624 12.863281-11.828124l2.4375-29.320313 1.960938-23.519531 18.011719 15.238281 22.457031 19.011719c5.121094 4.328125 12.722656 4.019531 17.460938-.730469l15.621093-15.609375c4.738281-4.75 5.058594-12.339844.71875-17.460938l-19.007812-22.46875-15.242188-18 23.519531-1.960937 29.320313-2.441406c6.691406-.558594 11.832031-6.148438 11.832031-12.859375v-22.089844c0-6.710938-5.140625-12.300781-11.832031-12.859375zm-121.160156 71.910156c-26.519531 0-48.007813-21.492187-48.007813-48 0-26.519531 21.488282-48.011719 48.007813-48.011719 26.511719 0 48.011719 21.492188 48.011719 48.011719 0 26.507813-21.5 48-48.011719 48zm0 0" fill="#323b5a"/><g fill="#545d7a"><path d="m162.933594 402.074219-4.992188 59.96875h-20.988281l-5-59.96875c4.949219 1.289062 10.140625 1.980469 15.488281 1.980469 5.351563 0 10.542969-.691407 15.492188-1.980469zm0 0"/><path d="m162.933594 283.015625c-4.949219-1.292969-10.140625-1.980469-15.492188-1.980469-5.347656 0-10.539062.6875-15.488281 1.980469l5-59.972656h20.988281zm0 0"/><path d="m85.9375 342.546875c0-5.351563.683594-10.542969 1.972656-15.492187l-59.964844 4.996093v20.988281l59.964844 4.996094c-1.289062-4.949218-1.972656-10.140625-1.972656-15.488281zm0 0"/><path d="m116.316406 289.507812-45.953125-38.882812-14.839843 14.839844 38.882812 45.957031c5.320312-9.035156 12.878906-16.59375 21.910156-21.914063zm0 0"/><path d="m116.320312 395.578125-44.808593 37.902344c-4.941407-5.128907-9.660157-10.46875-14.160157-16.011719l37.058594-43.796875c5.320313 9.027344 12.878906 16.589844 21.910156 21.90625zm0 0"/><path d="m239.296875 316.199219c-2.011719-7.019531-4.800781-13.710938-8.28125-19.96875-8.679687-15.636719-21.621094-28.582031-37.253906-37.261719-6.261719-3.472656-12.953125-6.269531-19.972657-8.277344-8.367187-2.394531-17.210937-3.679687-26.34375-3.679687-9.136718 0-17.976562 1.285156-26.34375 3.679687-7.023437 2.007813-13.710937 4.804688-19.972656 8.277344-15.632812 8.679688-28.574218 21.625-37.253906 37.261719-3.480469 6.257812-6.269531 12.949219-8.28125 19.96875-2.394531 8.371093-3.679688 17.210937-3.679688 26.347656s1.285157 17.972656 3.679688 26.34375c2.011719 7.019531 4.800781 13.710937 8.28125 19.964844 8.679688 15.632812 21.621094 28.574219 37.25 37.257812 6.261719 3.480469 12.953125 6.273438 19.976562 8.28125 8.367188 2.394531 17.207032 3.679688 26.34375 3.679688 9.132813 0 17.976563-1.285157 26.34375-3.679688 7.019532-2.007812 13.714844-4.800781 19.976563-8.28125 15.628906-8.683593 28.570313-21.625 37.25-37.257812 3.480469-6.253907 6.269531-12.945313 8.28125-19.964844 2.394531-8.371094 3.679687-17.207031 3.679687-26.34375s-1.285156-17.976563-3.679687-26.347656zm-91.851563 53.316406c-14.894531 0-26.96875-12.074219-26.96875-26.96875 0-14.898437 12.074219-26.972656 26.96875-26.972656 14.894532 0 26.96875 12.074219 26.96875 26.972656 0 14.894531-12.074218 26.96875-26.96875 26.96875zm0 0"/></g><path d="m242.976562 342.546875c0 9.136719-1.285156 17.972656-3.679687 26.34375-2.011719 7.019531-4.800781 13.710937-8.28125 19.964844-8.679687 15.632812-21.621094 28.574219-37.25 37.257812-6.261719 3.480469-12.957031 6.273438-19.976563 8.28125-8.367187 2.394531-17.210937 3.679688-26.34375 3.679688v-68.558594c14.894532 0 26.96875-12.074219 26.96875-26.96875 0-14.898437-12.074218-26.972656-26.96875-26.972656v-68.5625c9.132813 0 17.976563 1.285156 26.34375 3.679687 7.019532 2.007813 13.710938 4.804688 19.972657 8.28125 15.632812 8.679688 28.574219 21.625 37.253906 37.257813 3.480469 6.261719 6.269531 12.949219 8.28125 19.96875 2.394531 8.371093 3.679687 17.210937 3.679687 26.347656zm0 0" fill="#323b5a"/><path d="m239.292969 316.203125c-2.011719-7.019531-4.800781-13.710937-8.28125-19.96875-8.679688-15.640625-21.617188-28.582031-37.25-37.261719-6.257813-3.480468-12.949219-6.269531-19.96875-8.277344-8.371094-2.402343-17.210938-3.679687-26.351563-3.679687-9.128906 0-17.96875 1.277344-26.339844 3.679687-7.019531 2.007813-13.707031 4.796876-19.96875 8.277344-15.640624 8.679688-28.578124 21.621094-37.261718 37.261719-3.476563 6.257813-6.269532 12.949219-8.277344 19.96875-2.390625 8.371094-3.679688 17.210937-3.679688 26.339844 0 9.140625 1.289063 17.980469 3.679688 26.351562 2.007812 7.019531 4.800781 13.710938 8.277344 19.960938 8.683594 15.636719 21.621094 28.570312 37.25 37.257812 6.261718 3.480469 12.960937 6.269531 19.980468 8.28125 8.371094 2.390625 17.210938 3.679688 26.339844 3.679688 9.140625 0 17.980469-1.289063 26.351563-3.679688 7.019531-2.011719 13.710937-4.800781 19.96875-8.28125 15.632812-8.6875 28.570312-21.621093 37.25-37.257812 3.480469-6.25 6.269531-12.941407 8.28125-19.960938 2.398437-8.371093 3.679687-17.210937 3.679687-26.351562 0-9.128907-1.28125-17.96875-3.679687-26.339844zm-91.851563 87.671875c-33.867187 0-61.328125-27.460938-61.328125-61.332031 0-33.867188 27.460938-61.328125 61.328125-61.328125 33.871094 0 61.332032 27.460937 61.332032 61.328125 0 33.871093-27.460938 61.332031-61.332032 61.332031zm0 0" fill="#323b5a"/><path d="m239.292969 368.894531-23.519531 1.960938 15.238281 18 19.011719 22.464843c4.335937 5.121094 4.019531 12.714844-.726563 17.460938l-15.617187 15.609375c-4.746094 4.746094-12.335938 5.058594-17.457032.726563l-22.457031-19.003907-18.011719-15.238281-1.960937 23.519531-2.441407 29.320313c-.558593 6.6875-6.148437 11.832031-12.859374 11.832031h-11.046876v-71.671875c33.867188 0 61.328126-27.460938 61.328126-61.328125 0-33.871094-27.460938-61.332031-61.328126-61.332031v-71.667969h11.046876c6.710937 0 12.300781 5.140625 12.859374 11.832031l2.441407 29.316406 1.960937 23.519532 18.011719-15.238282 22.453125-19.007812c5.125-4.335938 12.714844-4.023438 17.460938.722656l15.621093 15.617188c4.742188 4.746094 5.058594 12.335937.722657 17.460937l-19.007813 22.464844-15.242187 18.011719 23.519531 1.957031 29.320312 2.445313c6.6875.558593 11.832031 6.148437 11.832031 12.859374v22.085938c0 6.710938-5.144531 12.300781-11.832031 12.859375zm0 0" fill="#20273a"/><path d="m147.441406 404.054688c5.351563 0 10.542969-.691407 15.492188-1.980469l-4.992188 59.972656h-10.5zm0 0" fill="#323b5a"/><path d="m178.574219 395.582031 45.949219 38.878907 14.839843-14.839844-38.882812-45.945313c-5.320313 9.027344-12.878907 16.585938-21.90625 21.90625zm0 0" fill="#323b5a"/><path d="m208.953125 342.546875c0 5.347656-.683594 10.539063-1.972656 15.488281l59.964843-4.996094v-20.988281l-59.964843-4.996093c1.289062 4.949218 1.972656 10.140624 1.972656 15.492187zm0 0" fill="#323b5a"/><path d="m200.480469 311.414062 38.882812-45.949218-14.839843-14.839844-45.949219 38.882812c9.027343 5.320313 16.585937 12.875 21.90625 21.90625zm0 0" fill="#323b5a"/><path d="m162.933594 283.015625c-4.949219-1.292969-10.140625-1.980469-15.492188-1.980469v-57.992187h10.5zm0 0" fill="#323b5a"/><path d="m242.972656 342.542969c0 9.140625-1.28125 17.980469-3.679687 26.351562-2.011719 7.019531-4.800781 13.710938-8.28125 19.960938-8.679688 15.636719-21.617188 28.570312-37.25 37.257812-6.257813 3.480469-12.949219 6.269531-19.96875 8.28125-8.371094 2.390625-17.210938 3.679688-26.351563 3.679688v-34.199219c33.871094 0 61.332032-27.460938 61.332032-61.332031 0-33.867188-27.460938-61.328125-61.332032-61.328125v-34.199219c9.140625 0 17.980469 1.277344 26.351563 3.679687 7.019531 2.007813 13.710937 4.796876 19.96875 8.277344 15.632812 8.679688 28.570312 21.621094 37.25 37.261719 3.480469 6.257813 6.269531 12.949219 8.28125 19.96875 2.398437 8.371094 3.679687 17.210937 3.679687 26.339844zm0 0" fill="#20273a"/><path d="m471.613281 217.722656v-18.972656c0-5.765625-4.417969-10.566406-10.164062-11.046875l-25.1875-2.101563-20.207031-1.683593 13.09375-15.472657 16.332031-19.300781c3.722656-4.402343 3.453125-10.921875-.625-15l-13.417969-13.414062c-4.078125-4.078125-10.597656-4.347657-15-.625l-19.296875 16.328125-15.472656 13.09375-1.683594-20.207032-2.101563-25.183593c-.476562-5.746094-5.28125-10.164063-11.046874-10.164063h-18.972657c-5.765625 0-10.566406 4.417969-11.046875 10.164063l-2.097656 25.183593-1.6875 20.207032-15.472656-13.09375-19.300782-16.328125c-4.398437-3.722657-10.921874-3.453125-14.996093.625l-13.417969 13.414062c-4.074219 4.078125-4.347656 10.597657-.621094 15l16.332032 19.300781 13.085937 15.472657-20.199219 1.683593-25.1875 2.101563c-5.746094.476563-10.167968 5.28125-10.167968 11.046875v18.972656c0 5.765625 4.421874 10.566406 10.167968 11.046875l25.1875 2.097657 20.199219 1.6875-13.085937 15.464843-16.332032 19.300781c-3.726562 4.402344-3.453125 10.925782.621094 15l13.417969 13.414063c4.074219 4.078125 10.597656 4.351563 14.996093.625l19.296876-16.328125 15.476562-13.09375 1.6875 20.207031 2.097656 25.191407c.480469 5.742187 5.28125 10.164062 11.046875 10.164062h18.972657c5.765624 0 10.566406-4.421875 11.046874-10.164062l2.101563-25.191407 1.683594-20.207031 15.476562 13.09375 19.292969 16.328125c4.402344 3.726563 10.921875 3.453125 15-.621094l13.414062-13.417969c4.078126-4.074218 4.351563-10.597656.625-15l-16.332031-19.300781-13.09375-15.464843 20.207031-1.6875 25.1875-2.097657c5.75-.480469 10.167969-5.28125 10.167969-11.046875zm-114.261719 31.761719c-22.78125 0-41.246093-18.46875-41.246093-41.246094 0-22.78125 18.464843-41.246093 41.246093-41.246093 22.777344 0 41.246094 18.464843 41.246094 41.246093 0 22.777344-18.46875 41.246094-41.246094 41.246094zm0 0" fill="#323b5a"/><path d="m370.65625 259.378906-4.289062 51.523438h-18.03125l-4.296876-51.523438c4.253907 1.109375 8.714844 1.703125 13.308594 1.703125 4.597656 0 9.054688-.59375 13.308594-1.703125zm0 0" fill="#545d7a"/><path d="m370.65625 157.09375c-4.253906-1.109375-8.710938-1.703125-13.308594-1.703125-4.59375 0-9.054687.59375-13.308594 1.703125l4.296876-51.523438h18.03125zm0 0" fill="#545d7a"/><path d="m304.507812 208.234375c0-4.59375.589844-9.054687 1.695313-13.308594l-51.519531 4.296875v18.027344l51.519531 4.296875c-1.105469-4.253906-1.695313-8.714844-1.695313-13.3125zm0 0" fill="#545d7a"/><path d="m330.609375 162.671875-39.480469-33.40625-12.75 12.75 33.402344 39.480469c4.574219-7.761719 11.066406-14.253906 18.828125-18.824219zm0 0" fill="#545d7a"/><path d="m311.785156 234.976562-33.40625 39.476563 12.75 12.75 39.476563-33.402344c-7.757813-4.570312-14.25-11.066406-18.820313-18.824219zm0 0" fill="#545d7a"/><path d="m436.261719 185.601562c-1.726563-6.03125-4.125-11.777343-7.113281-17.15625-7.457032-13.429687-18.574219-24.554687-32.007813-32.011718-5.378906-2.984375-11.125-5.386719-17.15625-7.113282-7.191406-2.054687-14.785156-3.160156-22.636719-3.160156-7.847656 0-15.441406 1.105469-22.632812 3.160156-6.03125 1.726563-11.777344 4.128907-17.15625 7.113282-13.429688 7.457031-24.546875 18.582031-32.007813 32.011718-2.988281 5.378907-5.386719 11.125-7.113281 17.15625-2.054688 7.191407-3.160156 14.785157-3.160156 22.636719 0 7.851563 1.105468 15.441407 3.160156 22.632813 1.726562 6.03125 4.125 11.777344 7.113281 17.152344 7.457031 13.429687 18.574219 24.546874 32.003907 32.011718 5.378906 2.988282 11.128906 5.386719 17.160156 7.113282 7.191406 2.054687 14.785156 3.160156 22.632812 3.160156s15.441406-1.105469 22.632813-3.160156c6.03125-1.726563 11.785156-4.125 17.164062-7.113282 13.425781-7.464844 24.542969-18.582031 32-32.011718 2.992188-5.375 5.386719-11.121094 7.113281-17.152344 2.058594-7.191406 3.164063-14.78125 3.164063-22.632813 0-7.851562-1.101563-15.445312-3.160156-22.636719zm-78.910157 45.804688c-12.796874 0-23.171874-10.375-23.171874-23.171875s10.375-23.167969 23.171874-23.167969c12.796876 0 23.167969 10.371094 23.167969 23.167969s-10.371093 23.171875-23.167969 23.171875zm0 0" fill="#545d7a"/><path d="m439.421875 208.234375c0 7.855469-1.105469 15.445313-3.160156 22.636719-1.730469 6.03125-4.125 11.777344-7.117188 17.152344-7.457031 13.429687-18.574219 24.546874-32 32.007812-5.378906 2.992188-11.128906 5.390625-17.160156 7.113281-7.191406 2.058594-14.785156 3.164063-22.636719 3.164063v-58.902344c12.796875 0 23.171875-10.375 23.171875-23.171875s-10.375-23.167969-23.171875-23.167969v-58.90625c7.847656 0 15.445313 1.105469 22.636719 3.160156 6.03125 1.726563 11.777344 4.128907 17.15625 7.113282 13.429687 7.457031 24.546875 18.582031 32.007813 32.011718 2.988281 5.378907 5.386718 11.125 7.113281 17.15625 2.058593 7.191407 3.160156 14.785157 3.160156 22.632813zm0 0" fill="#323b5a"/><path d="m436.257812 185.605469c-1.726562-6.03125-4.121093-11.777344-7.113281-17.15625-7.457031-13.4375-18.574219-24.554688-32.003906-32.011719-5.375-2.988281-11.125-5.386719-17.15625-7.113281-7.191406-2.0625-14.785156-3.164063-22.636719-3.164063-7.84375 0-15.441406 1.101563-22.628906 3.164063-6.03125 1.726562-11.78125 4.125-17.160156 7.113281-13.4375 7.457031-24.550782 18.574219-32.007813 32.011719-2.992187 5.378906-5.390625 11.125-7.117187 17.15625-2.050782 7.191406-3.160156 14.785156-3.160156 22.628906 0 7.855469 1.109374 15.449219 3.160156 22.640625 1.726562 6.03125 4.125 11.777344 7.117187 17.148438 7.457031 13.4375 18.570313 24.542968 32 32.007812 5.378907 2.992188 11.136719 5.390625 17.167969 7.113281 7.1875 2.054688 14.785156 3.164063 22.628906 3.164063 7.851563 0 15.445313-1.109375 22.636719-3.164063 6.03125-1.726562 11.78125-4.121093 17.15625-7.113281 13.429687-7.464844 24.546875-18.570312 32.003906-32.007812 2.992188-5.371094 5.386719-11.117188 7.113281-17.148438 2.0625-7.191406 3.164063-14.785156 3.164063-22.640625 0-7.84375-1.101563-15.4375-3.164063-22.628906zm-78.910156 75.320312c-29.097656 0-52.6875-23.589843-52.6875-52.691406 0-29.097656 23.589844-52.6875 52.6875-52.6875 29.101563 0 52.691406 23.589844 52.691406 52.6875 0 29.101563-23.59375 52.691406-52.691406 52.691406zm0 0" fill="#323b5a"/><path d="m436.257812 230.875-20.207031 1.683594 13.09375 15.464844 16.332031 19.296874c3.726563 4.402344 3.453126 10.925782-.625 15.003907l-13.417968 13.410156c-4.074219 4.078125-10.59375 4.347656-14.996094.625l-19.292969-16.324219-15.472656-13.09375-1.6875 20.207032-2.097656 25.1875c-.480469 5.746093-5.28125 10.164062-11.046875 10.164062h-9.492188v-61.574219c29.101563 0 52.691406-23.589843 52.691406-52.6875 0-29.101562-23.59375-52.691406-52.691406-52.691406v-61.574219h9.492188c5.765625 0 10.566406 4.417969 11.046875 10.164063l2.097656 25.1875 1.6875 20.207031 15.472656-13.09375 19.292969-16.328125c4.398438-3.726563 10.921875-3.457031 15 .621094l13.417969 13.417969c4.078125 4.078124 4.347656 10.597656.625 15l-16.335938 19.300781-13.089843 15.476562 20.207031 1.683594 25.1875 2.097656c5.746093.480469 10.164062 5.28125 10.164062 11.046875v18.976563c0 5.761719-4.417969 10.566406-10.164062 11.046875zm0 0" fill="#20273a"/><path d="m357.347656 261.082031c4.597656 0 9.054688-.59375 13.308594-1.703125l-4.285156 51.523438h-9.023438zm0 0" fill="#323b5a"/><path d="m384.09375 253.800781 39.476562 33.402344 12.75-12.75-33.40625-39.46875c-4.570312 7.753906-11.0625 14.246094-18.820312 18.816406zm0 0" fill="#323b5a"/><path d="m410.195312 208.234375c0 4.597656-.589843 9.054687-1.699218 13.3125l51.519531-4.296875v-18.027344l-51.519531-4.296875c1.109375 4.257813 1.699218 8.714844 1.699218 13.308594zm0 0" fill="#323b5a"/><path d="m402.914062 181.492188 33.40625-39.480469-12.75-12.746094-39.476562 33.40625c7.757812 4.570313 14.25 11.0625 18.820312 18.820313zm0 0" fill="#323b5a"/><path d="m370.65625 157.09375c-4.253906-1.109375-8.710938-1.703125-13.308594-1.703125v-49.820313h9.019532zm0 0" fill="#323b5a"/><path d="m439.421875 208.234375c0 7.855469-1.101563 15.449219-3.164063 22.640625-1.726562 6.03125-4.121093 11.777344-7.113281 17.148438-7.457031 13.4375-18.574219 24.542968-32.003906 32.007812-5.375 2.992188-11.125 5.390625-17.15625 7.113281-7.191406 2.054688-14.785156 3.164063-22.636719 3.164063v-29.382813c29.097656 0 52.6875-23.589843 52.6875-52.691406 0-29.097656-23.589844-52.6875-52.6875-52.6875v-29.382813c7.851563 0 15.445313 1.101563 22.636719 3.160157 6.03125 1.730469 11.78125 4.125 17.15625 7.117187 13.429687 7.457032 24.546875 18.574219 32.003906 32.007813 2.992188 5.378906 5.386719 11.128906 7.113281 17.160156 2.0625 7.1875 3.164063 14.78125 3.164063 22.625zm0 0" fill="#20273a"/><path d="m390.058594 421.128906c-1 15.921875-13.929688 28.851563-29.847656 29.851563-19.320313 1.21875-35.242188-14.699219-34.019532-34.011719 1.007813-15.929688 13.929688-28.847656 29.859375-29.859375 19.308594-1.21875 35.230469 14.699219 34.007813 34.019531zm48.832031-18.007812-19.539063-1.632813-15.679687-1.308593 10.15625-12 12.671875-14.980469c2.890625-3.410157 2.679688-8.46875-.480469-11.640625l-10.410156-10.410156c-3.167969-3.160157-8.230469-3.367188-11.640625-.476563l-14.96875 12.667969-12.011719 10.160156-1.296875-15.679688-1.632812-19.539062c-.367188-4.460938-4.097656-7.882812-8.570313-7.882812h-14.71875c-4.480469 0-8.199219 3.421874-8.570312 7.882812l-1.628907 19.539062-1.308593 15.679688-12-10.160156-14.980469-12.667969c-3.410156-2.890625-8.472656-2.683594-11.640625.476563l-10.402344 10.410156c-3.167969 3.171875-3.378906 8.230468-.488281 11.640625l12.671875 14.980469 10.15625 12-15.679687 1.308593-19.539063 1.632813c-4.460937.367187-7.878906 4.089844-7.878906 8.570312v14.71875c0 4.46875 3.417969 8.199219 7.878906 8.570313l19.539063 1.628906 15.679687 1.300781-10.15625 12-12.671875 14.980469c-2.890625 3.410156-2.679688 8.46875.488281 11.640625l10.402344 10.398438c3.167969 3.171874 8.230469 3.378906 11.640625.492187l14.96875-12.671875 12.011719-10.160156 1.308593 15.679687 1.410157 16.921875c2.941406-1.050781 5.859375-2.152344 8.75-3.3125 2.488281-.980468 4.960937-2.007812 7.398437-3.070312 2.671875-1.160156 5.320313-2.367188 7.949219-3.628906 3.183594-1.507813 6.332031-3.101563 9.433594-4.738282l.179687-2.171875 1.296875-15.679687 12.011719 10.160156.019531.019531c1.109375-.667969 2.210938-1.359375 3.300781-2.058593.488282-.300782.980469-.609376 1.46875-.929688 1.070313-.679688 2.132813-1.371094 3.191407-2.070312 1.160156-.769532 2.320312-1.550782 3.46875-2.339844 1.152343-.78125 2.300781-1.582032 3.429687-2.390625 2.28125-1.601563 4.519532-3.25 6.742188-4.929688 2.390625-1.820312 4.75-3.679687 7.070312-5.570312l-3.863281-4.570313-10.15625-12 15.679687-1.300781 19.539063-1.628906c.058594 0 .121094-.011719.167969-.019531 2.632812-2.691407 5.203125-5.441407 7.710937-8.25.011719-.101563.011719-.199219.011719-.300782v-14.71875c0-4.480468-3.429688-8.203125-7.890625-8.570312zm0 0" fill="#323b5a"/><path d="m368.449219 458.730469-2.371094 28.449219c-2.628906 1.261718-5.277344 2.46875-7.949219 3.628906-2.4375 1.0625-4.910156 2.089844-7.398437 3.070312l-2.929688-35.148437c3.300781.859375 6.757813 1.320312 10.328125 1.320312 3.5625 0 7.019532-.460937 10.320313-1.320312zm0 0" fill="#545d7a"/><path d="m368.449219 379.367188c-3.296875-.859376-6.757813-1.320313-10.324219-1.320313s-7.027344.460937-10.324219 1.320313l3.332031-39.972657h13.992188zm0 0" fill="#545d7a"/><path d="m317.128906 419.046875c0-3.566406.457032-7.027344 1.316406-10.328125l-39.972656 3.332031v13.988281l39.972656 3.332032c-.859374-3.300782-1.316406-6.757813-1.316406-10.324219zm0 0" fill="#545d7a"/><path d="m337.378906 383.695312-30.632812-25.917968-9.890625 9.890625 25.917969 30.632812c3.546874-6.023437 8.585937-11.0625 14.605468-14.605469zm0 0" fill="#545d7a"/><path d="m322.773438 439.792969-25.917969 30.628906 9.890625 9.890625 30.632812-25.914062c-6.019531-3.546876-11.058594-8.585938-14.605468-14.605469zm0 0" fill="#545d7a"/><path d="m419.347656 401.484375c-1.339844-4.675781-3.199218-9.136719-5.519531-13.308594-5.785156-10.421875-14.410156-19.050781-24.832031-24.835937-4.171875-2.316406-8.628906-4.179688-13.308594-5.519532-5.578125-1.597656-11.472656-2.453124-17.558594-2.453124-6.089844 0-11.984375.855468-17.5625 2.453124-4.679687 1.339844-9.136718 3.203126-13.308594 5.519532-10.421874 5.785156-19.046874 14.414062-24.832031 24.835937-2.320312 4.171875-4.179687 8.632813-5.519531 13.308594-1.597656 5.582031-2.453125 11.472656-2.453125 17.5625s.855469 11.980469 2.453125 17.558594c1.339844 4.679687 3.199219 9.136719 5.519531 13.308593 5.785157 10.421876 14.410157 19.046876 24.828125 24.835938 4.171875 2.320312 8.632813 4.179688 13.3125 5.519531 5.578125 1.59375 11.472656 2.453125 17.5625 2.453125 6.085938 0 11.980469-.859375 17.558594-2.453125 4.679688-1.339843 9.140625-3.199219 13.3125-5.519531 10.417969-5.789062 19.042969-14.414062 24.828125-24.835938 2.320313-4.167968 4.179687-8.628906 5.519531-13.308593 1.597656-5.578125 2.453125-11.46875 2.453125-17.558594s-.855469-11.980469-2.453125-17.5625zm-59.386718 35.449219c-11.367188 1.125-20.847657-8.351563-19.71875-19.722656.832031-8.410157 7.636718-15.21875 16.050781-16.050782 11.367187-1.125 20.847656 8.351563 19.71875 19.722656-.832031 8.410157-7.636719 15.214844-16.050781 16.050782zm0 0" fill="#545d7a"/><path d="m421.800781 419.046875c0 6.089844-.855469 11.980469-2.453125 17.558594-1.339844 4.679687-3.199218 9.136719-5.519531 13.308593-5.785156 10.421876-14.410156 19.046876-24.828125 24.835938-4.171875 2.320312-8.632812 4.179688-13.3125 5.519531-5.578125 1.59375-11.472656 2.453125-17.558594 2.453125v-45.699218c9.925782 0 17.976563-8.050782 17.976563-17.976563 0-9.929687-8.050781-17.976563-17.976563-17.976563v-45.703124c6.085938 0 11.980469.855468 17.558594 2.453124 4.679688 1.339844 9.136719 3.203126 13.308594 5.519532 10.421875 5.785156 19.050781 14.414062 24.832031 24.835937 2.320313 4.171875 4.179687 8.632813 5.519531 13.308594 1.597656 5.582031 2.453125 11.472656 2.453125 17.5625zm0 0" fill="#323b5a"/><path d="m419.347656 401.488281c-1.339844-4.679687-3.199218-9.136719-5.519531-13.308593-5.785156-10.425782-14.410156-19.050782-24.828125-24.835938-4.171875-2.320312-8.632812-4.179688-13.3125-5.519531-5.578125-1.601563-11.46875-2.453125-17.5625-2.453125-6.085938 0-11.976562.851562-17.558594 2.453125-4.675781 1.339843-9.136718 3.199219-13.308594 5.519531-10.425781 5.785156-19.050781 14.410156-24.835937 24.835938-2.320313 4.171874-4.179687 8.628906-5.519531 13.308593-1.59375 5.578125-2.453125 11.472657-2.453125 17.558594 0 6.089844.859375 11.984375 2.453125 17.5625 1.339844 4.679687 3.199218 9.136719 5.519531 13.304687 5.785156 10.425782 14.410156 19.042969 24.828125 24.835938 4.171875 2.320312 8.640625 4.179688 13.316406 5.519531 5.582032 1.59375 11.472656 2.453125 17.558594 2.453125 6.09375 0 11.984375-.859375 17.5625-2.453125 4.679688-1.339843 9.140625-3.199219 13.3125-5.519531 10.417969-5.789062 19.042969-14.410156 24.828125-24.835938 2.320313-4.164062 4.179687-8.625 5.519531-13.304687 1.601563-5.578125 2.453125-11.46875 2.453125-17.5625 0-6.085937-.851562-11.980469-2.453125-17.558594zm-59.09375 58.382813c-24.257812 1.230468-44.183594-18.695313-42.953125-42.953125 1.050781-20.769531 17.925781-37.644531 38.695313-38.699219 24.257812-1.230469 44.183594 18.699219 42.953125 42.957031-1.050781 20.765625-17.925781 37.644531-38.695313 38.695313zm0 0" fill="#323b5a"/><path d="m446.78125 411.691406v14.71875c0 .101563 0 .199219-.011719.300782-2.507812 2.808593-5.078125 5.558593-7.710937 8.25-.046875.007812-.109375.019531-.167969.019531l-19.539063 1.628906-15.679687 1.3125 10.15625 11.988281 3.863281 4.570313c-2.320312 1.890625-4.679687 3.75-7.070312 5.570312-2.222656 1.679688-4.460938 3.328125-6.742188 4.929688-1.128906.808593-2.277344 1.609375-3.429687 2.390625-1.148438.789062-2.308594 1.570312-3.46875 2.339844-1.058594.699218-2.121094 1.390624-3.191407 2.070312-.488281.320312-.980468.628906-1.46875.929688-1.089843.699218-2.191406 1.390624-3.300781 2.058593l-.019531-.019531-12-10.160156-1.308594 15.679687-.179687 2.171875c-3.101563 1.636719-6.25 3.230469-9.433594 4.738282-2.628906 1.261718-5.277344 2.46875-7.949219 3.628906v-30.878906c22.570313 0 40.871094-18.308594 40.871094-40.878907 0-22.582031-18.300781-40.878906-40.871094-40.878906v-47.78125h7.359375c4.472657 0 8.203125 3.429687 8.570313 7.890625l1.632812 19.539062 1.308594 15.679688 12-10.160156 14.96875-12.667969c3.410156-2.890625 8.472656-2.683594 11.640625.488281l10.410156 10.410156c3.160157 3.160157 3.371094 8.21875.480469 11.628907l-12.671875 14.980469-10.15625 12 15.679687 1.308593 19.539063 1.632813c4.460937.367187 7.890625 4.097656 7.890625 8.570312zm0 0" fill="#20273a"/><path d="m368.449219 458.730469-2.371094 28.449219c-2.628906 1.261718-5.277344 2.46875-7.949219 3.628906v-30.757813c3.5625 0 7.019532-.460937 10.320313-1.320312zm0 0" fill="#323b5a"/><path d="m410.621094 460.050781c-4.441406 3.359375-8.980469 6.578125-13.640625 9.660157l-18.101563-15.3125c6.011719-3.546876 11.050782-8.578126 14.601563-14.597657zm0 0" fill="#323b5a"/><path d="m399.125 419.046875c0 3.566406-.457031 7.023437-1.316406 10.324219l39.96875-3.332032v-13.988281l-39.96875-3.332031c.863281 3.300781 1.316406 6.761719 1.316406 10.328125zm0 0" fill="#323b5a"/><path d="m393.476562 398.296875 25.917969-30.628906-9.890625-9.890625-30.628906 25.914062c6.019531 3.546875 11.054688 8.585938 14.601562 14.605469zm0 0" fill="#323b5a"/><path d="m368.449219 379.367188c-3.296875-.859376-6.757813-1.320313-10.324219-1.320313v-38.65625h7zm0 0" fill="#323b5a"/><path d="m421.800781 419.046875c0 6.089844-.851562 11.984375-2.453125 17.5625-1.339844 4.679687-3.199218 9.136719-5.519531 13.304687-5.785156 10.425782-14.410156 19.042969-24.828125 24.835938-4.171875 2.320312-8.632812 4.179688-13.3125 5.519531-5.578125 1.59375-11.46875 2.453125-17.5625 2.453125v-22.796875c22.574219 0 40.878906-18.304687 40.878906-40.878906s-18.304687-40.878906-40.878906-40.878906v-22.796875c6.09375 0 11.984375.851562 17.5625 2.453125 4.679688 1.339843 9.140625 3.199219 13.3125 5.519531 10.417969 5.785156 19.042969 14.410156 24.828125 24.835938 2.320313 4.171874 4.179687 8.628906 5.519531 13.308593 1.601563 5.578125 2.453125 11.472657 2.453125 17.558594zm0 0" fill="#20273a"/></svg>