<svg id="Capa_1" enable-background="new 0 0 512 512" height="512" viewBox="0 0 512 512" width="512" xmlns="http://www.w3.org/2000/svg"><path d="m511.965 251.72c1.376 84.249-37.959 159.372-99.615 206.991-101.321 34.534-211.274 34.229-312.402-.866l-2.548-.885c-59.33-46.88-97.4-119.48-97.4-200.96 0-141.298 114.488-255.867 255.755-256 139.418-.13 253.933 112.32 256.21 251.72z" fill="#807bef"/><path d="m512 256c0 82.5-39.04 155.9-99.65 202.71-101.321 34.534-211.274 34.229-312.402-.866l-2.548-.884c-59.33-46.89-97.4-119.48-97.4-200.96 0-46.22 12.25-89.57 33.68-127 44.12 77.07 127.16 129 222.32 129s178.21-51.93 222.32-129c21.43 37.43 33.68 80.78 33.68 127z" fill="#6666e2"/><path d="m412.35 128.427v330.283c-.001.003-.002.005-.004.007-18.084 13.976-38.1 25.58-59.566 34.353-29.85 12.2-62.53 18.93-96.78 18.93-.38 0-.75 0-1.13-.01-59.46-.25-114.13-20.78-157.47-55.03v-328.533c0-6.996 5.671-12.667 12.667-12.667h289.616c6.996 0 12.667 5.671 12.667 12.667z" fill="#fff"/><path d="m412.35 128.427v330.283c-.001.003-.002.005-.004.007-18.084 13.976-38.1 25.58-59.566 34.353-30.176 12.333-63.244 19.076-97.902 18.928-.003-.003-.005-.005-.008-.008v-396.23h144.813c6.996 0 12.667 5.671 12.667 12.667z" fill="#d1f6ff"/><path d="m412.33 458.73c-18.08 13.97-38.09 25.57-59.55 34.34v-34.34z" fill="#66e1d2"/><path d="m306.223 450.34c-.566 0-1.147-.017-1.748-.055-16.224-.996-21.561-14.372-25.851-25.12-4.461-11.181-6.948-15.638-13.704-14.648-4.613.673-6.835 5.935-9.944 14.52-3.925 10.836-9.258 25.663-27.646 25.225-17.181-.425-22.524-19.49-27.24-36.31-3.992-14.242-7.763-27.694-16.757-28.992-2.743-.396-5.283.335-7.766 2.236-11.593 8.875-17.544 38.971-18.858 49.817-.3 2.467-2.546 4.235-5.008 3.927-2.467-.298-4.226-2.539-3.928-5.006.211-1.745 5.353-42.885 22.317-55.881 4.444-3.404 9.333-4.749 14.527-4.002 14.793 2.136 19.544 19.082 24.138 35.472 4.992 17.809 8.998 29.499 18.797 29.741.197.005.394.008.587.008 10.606 0 14.039-7.332 18.374-19.3 3.202-8.84 6.832-18.86 17.106-20.36 14.456-2.094 19.395 10.271 23.363 20.219 4.674 11.714 8.221 18.87 18.042 19.474 6.855.434 9.224-2.517 13.561-8.665 5.311-7.525 12.584-17.832 34.197-17.832 2.485 0 4.5 2.015 4.5 4.5s-2.015 4.5-4.5 4.5c-16.949 0-21.756 6.81-26.845 14.021-4.149 5.881-8.829 12.511-19.714 12.511z" fill="#323b5a"/><path d="m147.22 181.05h217.56v31.84h-217.56z" fill="#374c81"/><path d="m254.87 181.05h109.91v31.84h-109.91z" fill="#323b5a"/><path d="m147.22 244.74h217.56v31.85h-217.56z" fill="#374c81"/><path d="m254.87 244.74h109.91v31.85h-109.91z" fill="#323b5a"/><path d="m147.22 308.43h217.56v31.85h-217.56z" fill="#374c81"/><path d="m254.87 308.43h109.91v31.85h-109.91z" fill="#323b5a"/><path d="m320.825 390.026-8.673 24.642c-3.997 11.355-11.084 20.742-19.987 27.537-2.685-10.874-2.33-22.63 1.667-33.986l8.673-24.642z" fill="#4e689b"/><path d="m320.825 390.026-8.673 24.642c-3.997 11.355-11.084 20.742-19.987 27.537.216-9.853 2.246-21.02 6.243-32.375l8.673-24.642z" fill="#374c81"/><path d="m320.825 390.026-8.673 24.642c-3.997 11.355-11.084 20.742-19.987 27.537l19.5-55.403z" fill="#323b5a"/><path d="m377.924 273.743c-16.661 47.337-36.644 92.223-59.438 134.323l-25.464-8.963c8.608-47.094 21.137-94.603 37.798-141.94 5.929-16.847 19.749-54.601 32.149-86.857 7.544-19.626 14.558-37.224 18.954-46.843 5.371-11.743 16.925-14.502 26.349-11.185.008.003.008.003.015.005 1.001.352 1.969.771 2.91 1.268.008.003.008.003.008.003.193.094.376.193.567.296 7.633 4.195 12.829 12.736 10.057 23.659-2.597 10.253-8.153 28.364-14.564 48.389-10.538 32.912-23.412 70.999-29.341 87.845z" fill="#ffe400"/><path d="m377.924 273.743c-16.661 47.337-36.644 92.223-59.438 134.323l-19.127-6.732c12.129-45.854 26.52-92.709 43.181-140.045 5.93-16.847 19.509-54.685 31.451-87.103 7.257-19.727 13.914-37.451 17.861-47.228 4.818-11.929 11.679-16.34 16.421-14.68.008.003.008.003.015.005.605.213 1.175.527 1.693.936.221.165.635.276 1.216.332.008.003.008.003.008.003.193.094.376.193.567.296 7.633 4.195 12.829 12.736 10.057 23.659-2.597 10.253-8.153 28.364-14.564 48.389-10.538 32.912-23.412 70.999-29.341 87.845z" fill="#fed110"/><path d="m377.924 273.743c-16.661 47.337-36.644 92.223-59.438 134.323l-12.728-4.48 102.529-291.303c9.432 3.32 16.721 12.702 13.542 25.225-2.597 10.253-8.153 28.364-14.564 48.389-10.538 32.913-23.412 71-29.341 87.846z" fill="#fcbf12"/><path d="m407.265 185.898-44.296-15.591c7.544-19.626 14.558-37.224 18.954-46.843 5.371-11.743 16.925-14.502 26.349-11.185.008.003.008.003.015.005 1.001.352 1.984.777 2.928 1.266 7.942 4.086 13.453 12.772 10.614 23.96-2.597 10.252-8.153 28.364-14.564 48.388z" fill="#ffe400"/><path d="m407.265 185.898-33.275-11.712c7.257-19.727 13.914-37.451 17.861-47.228 4.818-11.929 11.679-16.34 16.421-14.68.008.003.008.003.015.005.605.213 1.175.527 1.693.936.218.173.643.279 1.235.33 7.942 4.086 13.453 12.772 10.614 23.96-2.597 10.253-8.153 28.365-14.564 48.389z" fill="#fed110"/><path d="m407.265 185.898-22.144-7.794 23.166-65.82c9.432 3.32 16.721 12.702 13.542 25.225-2.597 10.253-8.153 28.365-14.564 48.389z" fill="#fcbf12"/><path d="m429.486 189.561-34.168 97.078c-1.733 4.925-6.084 8.171-10.938 8.738-2.955.346-5.212-2.602-4.224-5.409l32.342-91.889-53.193-18.722c-3.033-1.067-4.626-4.392-3.559-7.424l2.607-7.407c1.067-3.033 4.391-4.626 7.424-3.559l60.15 21.171c3.032 1.066 4.626 4.39 3.559 7.423z" fill="#4e689b"/><path d="m429.486 189.561-34.168 97.078c-1.733 4.925-6.084 8.171-10.938 8.738-2.955.346-5.212-2.602-4.224-5.409l32.342-91.889-30.614-10.775 6.473-18.39 37.571 13.224c3.031 1.066 4.625 4.39 3.558 7.423z" fill="#374c81"/><path d="m409.729 200.038h13.502v13.197h-13.502z" fill="#323b5a" transform="matrix(.332 -.943 .943 .332 83.291 530.889)"/></svg>