<svg height="512pt" viewBox="0 0 512 512" width="512pt" xmlns="http://www.w3.org/2000/svg"><path d="m512 256c0 141.386719-114.613281 256-256 256s-256-114.613281-256-256 114.613281-256 256-256 256 114.613281 256 256zm0 0" fill="#b5e237"/><path d="m512 256c0 141.378906-114.621094 256-256 256s-256-114.621094-256-256c0-46.21875 12.25-89.570312 33.679688-127 44.121093 77.070312 127.160156 129 222.320312 129s178.210938-51.929688 222.320312-129c21.429688 37.429688 33.679688 80.78125 33.679688 127zm0 0" fill="#95d600"/><path d="m481.261719 377.699219v.011719c-43.292969 79.96875-127.941407 134.289062-225.261719 134.289062s-181.96875-54.320312-225.261719-134.289062v-.011719zm0 0" fill="#85af12"/><path d="m457.738281 223.914062-182.472656 182.472657v53.417969h-39.722656v-69.867188l166.023437-166.023438-94.765625-94.765624-21.417969 21.417968-14.039062-14.042968h-.007812l-14.039063-14.046876 49.503906-49.503906zm0 0" fill="#323b5a"/><path d="m457.738281 223.914062-182.472656 182.472657v53.417969h-19.859375v-61.640626l174.242188-174.25-122.847657-122.851562-35.457031 35.460938h-.007812l-14.039063-14.046876 49.503906-49.503906zm0 0" fill="#20273a"/><path d="m235.929688 235.371094c-17.335938 19.652344-47.808594 19.652344-65.144532 0-14.304687-16.214844-14.320312-40.976563-.035156-57.210938 17.335938-19.699218 47.882812-19.699218 65.21875 0 14.285156 16.234375 14.265625 40.996094-.039062 57.210938zm0 0" fill="#ffd112"/><path d="m234.019531 237.40625c-16.9375 16.9375-44.386719 16.9375-61.324219 0l61.324219-61.324219c16.9375 16.9375 16.929688 44.394531 0 61.324219zm0 0" fill="#ff9f00"/><path d="m258.847656 293.085938-141.835937-141.835938c27.835937-27.835938 67.953125-35.886719 102.894531-24.164062l11.953125-11.957032c9.214844-9.214844 24.15625-9.214844 33.367187 0l29.746094 29.746094c9.210938 9.210938 9.210938 24.144531 0 33.355469l-11.960937 11.960937c11.722656 34.941406 3.671875 75.058594-24.164063 102.894532zm0 0" fill="#545d7a"/><path d="m258.847656 293.085938-106.207031-106.207032c26.636719-26.636718 58.304687-44.421875 83.695313-44.644531l11.792968-11.753906c8.820313-8.820313 16.0625-12.34375 22.292969-10.160157l24.550781 24.554688c9.214844 9.210938 9.214844 24.144531 0 33.355469l-11.957031 11.960937c11.71875 34.941406 3.667969 75.058594-24.167969 102.894532zm0 0" fill="#474f6f"/><path d="m294.972656 178.238281-11.957031 11.957031c11.71875 34.941407 3.667969 75.058594-24.164063 102.890626l-70.917968-70.917969 92.167968-92.164063 14.867188 14.867188c9.214844 9.214844 9.214844 24.152344.003906 33.367187zm0 0" fill="#323b5a"/><path d="m456.566406 223.410156c0 17.582032-14.839844 31.695313-32.664062 30.535156-15.242188-.988281-27.617188-13.417968-28.519532-28.660156-1.058593-17.773437 13.039063-32.492187 30.5625-32.492187 16.902344 0 30.621094 13.699219 30.621094 30.617187zm0 0" fill="#ffd112"/><path d="m456.566406 223.410156c0 16.90625-13.71875 30.605469-30.621094 30.605469v-61.222656c16.902344 0 30.621094 13.699219 30.621094 30.617187zm0 0" fill="#ff9f00"/><path d="m441.570312 221.359375c1.300782 10.320313-7.402343 18.992187-17.722656 17.660156-7.015625-.90625-12.671875-6.585937-13.535156-13.609375-1.265625-10.300781 7.40625-18.933594 17.695312-17.628906 7.015626.890625 12.679688 6.5625 13.5625 13.578125zm0 0" fill="#fff"/><path d="m441.699219 223.40625c0 8.699219-7.058594 15.746094-15.753907 15.746094v-31.5c8.695313 0 15.753907 7.046875 15.753907 15.753906zm0 0" fill="#d0f6ff"/><path d="m382.648438 459.808594v18.710937c-37.347657 21.308594-80.578126 33.480469-126.648438 33.480469-22.039062 0-43.429688-2.789062-63.839844-8.019531-22.121094-5.679688-43.082031-14.242188-62.46875-25.261719l.199219-18.910156zm0 0" fill="#fff"/><path d="m382.648438 459.808594v18.710937c-37.347657 21.308594-80.578126 33.480469-126.648438 33.480469-22.039062 0-43.429688-2.789062-63.839844-8.019531l.351563-44.171875zm0 0" fill="#d0f6ff"/><path d="m382.648438 459.808594v18.710937c-37.347657 21.308594-80.578126 33.480469-126.648438 33.480469v-52.191406zm0 0" fill="#8fc9f7"/><g fill="#fff"><path d="m435.648438 278.46875h1.523437c6.753906 0 12.226563 5.472656 12.226563 12.226562v1.523438h8.714843v-1.523438c0-6.753906 5.476563-12.226562 12.230469-12.226562h1.523438v-8.71875h-1.523438c-6.753906 0-12.230469-5.472656-12.230469-12.226562v-1.523438h-8.714843v1.523438c0 6.753906-5.472657 12.230468-12.226563 12.230468h-1.523437zm0 0"/><path d="m370.992188 407.597656h1.523437c6.753906 0 12.226563 5.472656 12.226563 12.226563v1.523437h8.71875v-1.523437c0-6.753907 5.472656-12.226563 12.226562-12.226563h1.523438v-8.714844h-1.523438c-6.753906 0-12.226562-5.476562-12.226562-12.230468v-1.523438h-8.71875v1.523438c0 6.753906-5.472657 12.230468-12.226563 12.230468h-1.523437zm0 0"/><path d="m109.230469 407.597656h1.527343c6.75 0 12.226563 5.472656 12.226563 12.226563v1.523437h8.714844v-1.523437c0-6.753907 5.472656-12.226563 12.226562-12.226563h1.523438v-8.714844h-1.523438c-6.753906 0-12.226562-5.476562-12.226562-12.230468v-1.523438h-8.714844v1.523438c0 6.753906-5.476563 12.230468-12.226563 12.230468h-1.527343zm0 0"/><path d="m44.578125 278.46875h1.523437c6.753907 0 12.226563 5.472656 12.226563 12.226562v1.523438h8.714844v-1.523438c0-6.753906 5.476562-12.226562 12.226562-12.226562h1.527344v-8.71875h-1.527344c-6.75 0-12.226562-5.472656-12.226562-12.226562v-1.523438h-8.714844v1.523438c0 6.753906-5.472656 12.230468-12.226563 12.230468h-1.523437zm0 0"/></g></svg>