<svg id="Capa_1" enable-background="new 0 0 512 512" height="512" viewBox="0 0 512 512" width="512" xmlns="http://www.w3.org/2000/svg"><path d="m512 256c0 48.69-13.6 94.2-37.19 132.95-7.59 12.47-16.22 24.24-25.77 35.19-2.78 3.19-5.64 6.31-8.58 9.36l-43.28 18.419c-90.205 38.388-192.154 38.388-282.359 0l-43.281-18.419c-2.94-3.05-5.8-6.17-8.58-9.36-9.55-10.95-18.18-22.72-25.77-35.19-23.59-38.75-37.19-84.26-37.19-132.95s13.6-94.2 37.19-132.95c7.59-12.47 16.22-24.24 25.77-35.19 46.93-53.84 116.01-87.86 193.04-87.86s146.11 34.02 193.04 87.86c9.55 10.95 18.18 22.72 25.77 35.19 23.59 38.75 37.19 84.26 37.19 132.95z" fill="#807bef"/><path d="m512 256c0 68.91-27.24 131.48-71.54 177.5l-43.28 18.419c-90.205 38.388-192.154 38.388-282.359 0l-43.281-18.419c-44.3-46.02-71.54-108.59-71.54-177.5 0-46.22 12.25-89.57 33.68-127 44.12 77.07 127.16 129 222.32 129s178.21-51.93 222.32-129c21.43 37.43 33.68 80.78 33.68 127z" fill="#6666e2"/><path d="m440.46 433.5c-46.57 48.39-112 78.5-184.46 78.5s-137.89-30.11-184.46-78.5z" fill="#ffe400"/><path d="m440.46 433.5c-46.57 48.39-112 78.5-184.46 78.5v-78.5z" fill="#fed110"/><path d="m181.544 99.277v84.572c0 2.704-2.191 4.895-4.895 4.895h-84.573c-2.704 0-4.895-2.191-4.895-4.895v-84.572c0-2.704 2.191-4.895 4.895-4.895h84.573c2.703 0 4.895 2.191 4.895 4.895z" fill="#ff9d66"/><path d="m181.544 99.277v84.572c0 2.704-2.191 4.895-4.895 4.895h-42.286v-94.362h42.286c2.703 0 4.895 2.191 4.895 4.895z" fill="#f4863d"/><path d="m146.04 94.382v19.095c0 2.284-1.854 4.138-4.138 4.138h-15.079c-2.284 0-4.138-1.854-4.138-4.138v-19.095z" fill="#fdf0b2"/><path d="m146.04 94.382v19.095c0 2.284-1.854 4.138-4.138 4.138h-7.54v-23.233z" fill="#fede8c"/><path d="m168.188 178.529h-21.912c-1.711 0-3.099-1.387-3.099-3.099 0-1.711 1.387-3.099 3.099-3.099h21.912c1.712 0 3.099 1.387 3.099 3.099 0 1.712-1.387 3.099-3.099 3.099z" fill="#374c81"/><path d="m168.188 166.96h-21.912c-1.711 0-3.099-1.387-3.099-3.099 0-1.711 1.387-3.099 3.099-3.099h21.912c1.712 0 3.099 1.387 3.099 3.099 0 1.711-1.387 3.099-3.099 3.099z" fill="#374c81"/><path d="m303.182 99.277v84.572c0 2.704-2.191 4.895-4.895 4.895h-84.573c-2.704 0-4.895-2.191-4.895-4.895v-84.572c0-2.704 2.191-4.895 4.895-4.895h84.573c2.703 0 4.895 2.191 4.895 4.895z" fill="#ff9d66"/><path d="m303.182 99.277v84.572c0 2.704-2.191 4.895-4.895 4.895h-42.287v-94.362h42.286c2.704 0 4.896 2.191 4.896 4.895z" fill="#f4863d"/><path d="m267.678 94.382v19.095c0 2.284-1.854 4.138-4.138 4.138h-15.08c-2.284 0-4.138-1.854-4.138-4.138v-19.095z" fill="#fdf0b2"/><path d="m267.678 94.382v19.095c0 2.284-1.854 4.138-4.138 4.138h-7.54v-23.233z" fill="#fede8c"/><path d="m289.826 178.529h-21.912c-1.712 0-3.099-1.387-3.099-3.099 0-1.711 1.387-3.099 3.099-3.099h21.912c1.711 0 3.099 1.387 3.099 3.099 0 1.712-1.387 3.099-3.099 3.099z" fill="#374c81"/><path d="m289.826 166.96h-21.912c-1.712 0-3.099-1.387-3.099-3.099 0-1.711 1.387-3.099 3.099-3.099h21.912c1.711 0 3.099 1.387 3.099 3.099 0 1.711-1.387 3.099-3.099 3.099z" fill="#374c81"/><path d="m424.819 99.277v84.572c0 2.704-2.191 4.895-4.895 4.895h-84.573c-2.704 0-4.895-2.191-4.895-4.895v-84.572c0-2.704 2.191-4.895 4.895-4.895h84.573c2.704 0 4.895 2.191 4.895 4.895z" fill="#ff9d66"/><path d="m424.819 99.277v84.572c0 2.704-2.191 4.895-4.895 4.895h-42.286v-94.362h42.286c2.704 0 4.895 2.191 4.895 4.895z" fill="#f4863d"/><path d="m389.316 94.382v19.095c0 2.284-1.854 4.138-4.138 4.138h-15.079c-2.284 0-4.138-1.854-4.138-4.138v-19.095z" fill="#fdf0b2"/><path d="m389.316 94.382v19.095c0 2.284-1.854 4.138-4.138 4.138h-7.54v-23.233z" fill="#fede8c"/><path d="m411.464 178.529h-21.912c-1.711 0-3.099-1.387-3.099-3.099 0-1.711 1.387-3.099 3.099-3.099h21.912c1.712 0 3.099 1.387 3.099 3.099 0 1.712-1.388 3.099-3.099 3.099z" fill="#374c81"/><path d="m411.464 166.96h-21.912c-1.711 0-3.099-1.387-3.099-3.099 0-1.711 1.387-3.099 3.099-3.099h21.912c1.712 0 3.099 1.387 3.099 3.099 0 1.711-1.388 3.099-3.099 3.099z" fill="#374c81"/><path d="m181.544 261.526v84.573c0 2.704-2.191 4.895-4.895 4.895h-84.573c-2.704 0-4.895-2.191-4.895-4.895v-84.573c0-2.704 2.191-4.895 4.895-4.895h84.573c2.703-.001 4.895 2.191 4.895 4.895z" fill="#ff9d66"/><path d="m181.544 261.526v84.573c0 2.704-2.191 4.895-4.895 4.895h-42.286v-94.364h42.286c2.703 0 4.895 2.192 4.895 4.896z" fill="#f4863d"/><path d="m146.04 256.63v19.095c0 2.284-1.854 4.138-4.138 4.138h-15.079c-2.284 0-4.138-1.854-4.138-4.138v-19.095z" fill="#fdf0b2"/><path d="m146.04 256.63v19.095c0 2.284-1.854 4.138-4.138 4.138h-7.54v-23.233z" fill="#fede8c"/><path d="m168.188 340.778h-21.912c-1.711 0-3.099-1.387-3.099-3.099 0-1.711 1.387-3.099 3.099-3.099h21.912c1.712 0 3.099 1.387 3.099 3.099 0 1.711-1.387 3.099-3.099 3.099z" fill="#374c81"/><path d="m168.188 329.208h-21.912c-1.711 0-3.099-1.387-3.099-3.099 0-1.711 1.387-3.099 3.099-3.099h21.912c1.712 0 3.099 1.387 3.099 3.099 0 1.712-1.387 3.099-3.099 3.099z" fill="#374c81"/><path d="m303.182 261.526v84.573c0 2.704-2.191 4.895-4.895 4.895h-84.573c-2.704 0-4.895-2.191-4.895-4.895v-84.573c0-2.704 2.191-4.895 4.895-4.895h84.573c2.703-.001 4.895 2.191 4.895 4.895z" fill="#ff9d66"/><path d="m303.182 261.526v84.573c0 2.704-2.191 4.895-4.895 4.895h-42.287v-94.364h42.286c2.704 0 4.896 2.192 4.896 4.896z" fill="#f4863d"/><path d="m267.678 256.63v19.095c0 2.284-1.854 4.138-4.138 4.138h-15.08c-2.284 0-4.138-1.854-4.138-4.138v-19.095z" fill="#fdf0b2"/><path d="m267.678 256.63v19.095c0 2.284-1.854 4.138-4.138 4.138h-7.54v-23.233z" fill="#fede8c"/><path d="m289.826 340.778h-21.912c-1.712 0-3.099-1.387-3.099-3.099 0-1.711 1.387-3.099 3.099-3.099h21.912c1.711 0 3.099 1.387 3.099 3.099 0 1.711-1.387 3.099-3.099 3.099z" fill="#374c81"/><path d="m289.826 329.208h-21.912c-1.712 0-3.099-1.387-3.099-3.099 0-1.711 1.387-3.099 3.099-3.099h21.912c1.711 0 3.099 1.387 3.099 3.099 0 1.712-1.387 3.099-3.099 3.099z" fill="#374c81"/><path d="m424.819 261.526v84.573c0 2.704-2.191 4.895-4.895 4.895h-84.573c-2.704 0-4.895-2.191-4.895-4.895v-84.573c0-2.704 2.191-4.895 4.895-4.895h84.573c2.704-.001 4.895 2.191 4.895 4.895z" fill="#ff9d66"/><path d="m424.819 261.526v84.573c0 2.704-2.191 4.895-4.895 4.895h-42.286v-94.364h42.286c2.704 0 4.895 2.192 4.895 4.896z" fill="#f4863d"/><path d="m389.316 256.63v19.095c0 2.284-1.854 4.138-4.138 4.138h-15.079c-2.284 0-4.138-1.854-4.138-4.138v-19.095z" fill="#fdf0b2"/><path d="m389.316 256.63v19.095c0 2.284-1.854 4.138-4.138 4.138h-7.54v-23.233z" fill="#fede8c"/><g fill="#374c81"><path d="m411.464 340.778h-21.912c-1.711 0-3.099-1.387-3.099-3.099 0-1.711 1.387-3.099 3.099-3.099h21.912c1.712 0 3.099 1.387 3.099 3.099 0 1.711-1.388 3.099-3.099 3.099z"/><path d="m411.464 329.208h-21.912c-1.711 0-3.099-1.387-3.099-3.099 0-1.711 1.387-3.099 3.099-3.099h21.912c1.712 0 3.099 1.387 3.099 3.099 0 1.712-1.388 3.099-3.099 3.099z"/><path d="m474.81 350.99v-227.94c-7.59-12.47-16.22-24.24-25.77-35.19v100.88h-386.08v-100.88c-9.55 10.95-18.18 22.72-25.77 35.19v227.94h-.18v25.77h.18v12.19c7.59 12.47 16.22 24.24 25.77 35.19v-47.38h386.08v47.38c9.55-10.95 18.18-22.72 25.77-35.19v-12.19h.18v-25.77zm-25.77 0h-386.08v-136.48h386.08z"/></g><path d="m474.99 350.99v25.77h-.18v12.19c-7.59 12.47-16.22 24.24-25.77 35.19v-47.38h-193.04v-25.77h193.04v-136.48h-193.04v-25.77h193.04v-100.88c9.55 10.95 18.18 22.72 25.77 35.19v227.94z" fill="#323b5a"/></svg>