<svg id="Capa_1" enable-background="new 0 0 512 512" height="512" viewBox="0 0 512 512" width="512" xmlns="http://www.w3.org/2000/svg"><path d="m512 256c0 70.11-28.19 133.63-73.84 179.87l-226.95 72.22c-46.06-8.12-87.88-28.57-121.92-57.81l-.08-.08-15.36-14.32-.01-.01c-45.65-46.24-73.84-109.76-73.84-179.87 0-141.38 114.62-256 256-256s256 114.62 256 256z" fill="#82f700"/><path d="m512 256c0 70.11-28.19 133.64-73.84 179.87h-.01l-226.94 72.22c-37.11-6.55-71.46-21.09-101.21-41.78-7.18-4.99-14.09-10.35-20.71-16.03l-.09-.08-15.24-14.22-.12-.11c-45.65-46.23-73.84-109.76-73.84-179.87 0-46.22 12.25-89.57 33.68-127 44.12 77.07 127.16 129 222.32 129s178.21-51.93 222.32-129c21.43 37.43 33.68 80.78 33.68 127z" fill="#03cc7f"/><path d="m438.16 171.58v264.29c-46.42 47-110.89 76.13-182.16 76.13-13.68 0-27.12-1.07-40.22-3.15-1.53-.23-3.05-.49-4.57-.76v-336.51z" fill="#d1f6ff"/><path d="m249.498 357.253h150.366v109.493h-150.366z" fill="#0095ff"/><g fill="#8fc8f5"><path d="m249.498 213.382h150.366v24.885h-150.366z"/><path d="m249.498 265.142h84.394v24.885h-84.394z"/><path d="m249.498 306.949h84.394v24.885h-84.394z"/><path d="m300.79 109.86v340.42l-85.01 58.57c-1.53-.23-3.05-.49-4.57-.76v-336.51z"/></g><path d="m300.79 109.86v340.42h-211.5c-5.35-4.59-10.5-9.4-15.45-14.41v-326.01z" fill="#fff"/><path d="m112.136 146.691h150.366v24.885h-150.366z" fill="#8fc8f5"/><path d="m112.136 198.451h84.394v24.885h-84.394z" fill="#8fc8f5"/><path d="m112.136 240.258h84.394v24.885h-84.394z" fill="#8fc8f5"/><path d="m112.136 294.886h150.366v109.493h-150.366z" fill="#00cbff"/></svg>