<svg id="Capa_1" enable-background="new 0 0 512 512" height="512" viewBox="0 0 512 512" width="512" xmlns="http://www.w3.org/2000/svg"><circle cx="256" cy="256" fill="#22d7ff" r="256"/><path d="m512 256c0 87.11-43.52 164.07-110 210.31-41.41 28.8-91.73 45.69-146 45.69s-104.59-16.89-146-45.69c-66.48-46.24-110-123.2-110-210.31 0-46.22 12.25-89.57 33.68-127 44.12 77.07 127.16 129 222.32 129s178.21-51.93 222.32-129c21.43 37.43 33.68 80.78 33.68 127z" fill="#00b3fe"/><path d="m440.46 433.5c-46.57 48.39-112 78.5-184.46 78.5s-137.89-30.11-184.46-78.5z" fill="#95d604"/><path d="m440.46 433.5c-46.57 48.39-112 78.5-184.46 78.5v-78.5z" fill="#84af10"/><path d="m419.287 114.373c0-.067.005-.132.005-.199 0-12.17-9.866-22.036-22.037-22.036-2.891 0-5.65.563-8.18 1.575-4.887-8.754-14.237-14.678-24.975-14.678-13.944 0-25.55 9.986-28.073 23.196-.752-.108-1.52-.167-2.302-.167-7.582 0-13.934 5.248-15.631 12.309z" fill="#fff"/><path d="m397.786 114.373c0-.038.003-.076.003-.114 0-6.998-5.673-12.671-12.671-12.671-1.663 0-3.249.323-4.703.906-2.81-5.034-8.186-8.44-14.361-8.44-8.018 0-14.692 5.742-16.143 13.338-.432-.062-.874-.096-1.323-.096-4.36 0-8.012 3.018-8.988 7.078h58.186z" fill="#d0f6ff"/><path d="m307.567 58.653c0-.067.005-.132.005-.199 0-12.17-9.866-22.036-22.037-22.036-2.891 0-5.65.563-8.18 1.575-4.887-8.754-14.237-14.678-24.975-14.678-13.944 0-25.55 9.986-28.073 23.196-.752-.108-1.52-.167-2.302-.167-7.582 0-13.934 5.248-15.631 12.309z" fill="#fff"/><path d="m286.066 58.653c0-.038.003-.076.003-.114 0-6.998-5.673-12.671-12.671-12.671-1.663 0-3.249.323-4.703.906-2.81-5.034-8.186-8.44-14.361-8.44-8.018 0-14.692 5.742-16.143 13.338-.432-.062-.874-.096-1.323-.096-4.36 0-8.012 3.018-8.988 7.078h58.186z" fill="#d0f6ff"/><path d="m80 298.803h352v134.7h-352z" fill="#fff"/><path d="m256 298.8h176v134.7h-176z" fill="#d1f6ff"/><path d="m206.376 342.716h35.185v16.084h-35.185z" fill="#4e689b"/><path d="m206.376 372.758h35.185v16.084h-35.185z" fill="#4e689b"/><path d="m432 298.8v24.18h-352v-24.18l176-5z" fill="#d1f6ff"/><path d="m256 298.8h176v24.18h-176z" fill="#8fc8f5"/><path d="m256 298.8 34.195-53.052 54.2-53.058 87.605 106.113z" fill="#d1f6ff"/><path d="m357.34 414.726-20.592-9.45v-43.011l20.593-7.43 20.592 7.367v43.074z" fill="#313b5a"/><path d="m357.341 411.5v-53.094l20.592 3.796v43.074z" fill="#22283a"/><path d="m336.748 347.406h63.765v14.859h-63.765z" fill="#8fc8f5"/><path d="m392.049 419.391v14.11h-55.302v-28.225h41.186v14.115z" fill="#65b2fe"/><path d="m336.747 405.276h41.186v14.116h-41.186z" fill="#fff"/><path d="m350.86 419.389v-14.112h-14.112v14.112 14.112h14.112 14.111v-14.112z" fill="#8fc8f5"/><path d="m364.971 347.406h35.542v14.859h-35.542z" fill="#65b2fe"/><path d="m282.409 361.065h27.777v27.777h-27.777z" fill="#22283a"/><g fill="#545d7a"><path d="m103.299 371.69h86.27v61.63h-86.27z"/><path d="m344.39 192.69-88.39 106.11h-84.08l55.96-106.11z"/><path d="m227.88 192.69v38.33l-55.96 67.78-45.96-176.92h55.96z"/></g><path d="m125.958 121.877-45.958 70.81v106.113h91.916v-106.113z" fill="#fff"/><path d="m227.88 192.69v38.33l-55.96 67.78v-106.11z" fill="#d1f6ff"/><path d="m112.069 184.8h27.777v27.777h-27.777z" fill="#545d7a"/><path d="m112.069 228.964h27.777v27.777h-27.777z" fill="#545d7a"/><path d="m330.111 245.745h27.777v27.777h-27.777z" fill="#22283a"/><path d="m344.39 192.69-88.39 106.11v-106.11z" fill="#474f6f"/><path d="m256 298.8h176v24.18h-176z" fill="#8fc8f5"/><path d="m146.434 371.69h43.135v61.63h-43.135z" fill="#474f6f"/></svg>