<svg id="Capa_1" enable-background="new 0 0 512 512" height="512" viewBox="0 0 512 512" width="512" xmlns="http://www.w3.org/2000/svg"><path d="m440.46 433.51v-.01l-28.798 12.256c-99.459 42.326-211.865 42.326-311.323 0l-28.799-12.256v.01c-43.998-45.716-71.168-107.739-71.536-176.103-.759-141.026 111.527-255.525 252.542-257.384 142.963-1.885 259.454 113.448 259.454 255.977 0 68.92-27.24 131.48-71.54 177.51z" fill="#22d7ff"/><path d="m512 256c0 38.63-8.56 75.25-23.88 108.09-12.01 25.76-28.19 49.18-47.66 69.41l-28.798 12.256c-99.459 42.326-211.865 42.326-311.323 0l-28.799-12.256c-19.47-20.23-35.65-43.65-47.66-69.41-15.32-32.84-23.88-69.46-23.88-108.09 0-46.22 12.25-89.57 33.68-127 44.12 77.07 127.16 129 222.32 129s178.21-51.93 222.32-129c21.43 37.43 33.68 80.78 33.68 127z" fill="#00b3fe"/><path d="m488.12 364.09c-19.23 41.23-49.12 76.48-86.12 102.22-40.76 28.35-90.16 45.16-143.46 45.68-.85.01-1.69.01-2.54.01-1.05 0-2.09-.01-3.14-.02-.65-.01-1.29-.01-1.94-.03-52.33-1.02-100.8-17.74-140.92-45.64-37-25.74-66.89-60.99-86.12-102.22z" fill="#545d7a"/><path d="m488.12 364.09c-19.23 41.23-49.12 76.48-86.12 102.22-40.76 28.35-90.16 45.16-143.46 45.68-.85.01-1.69.01-2.54.01v-147.91z" fill="#474f6f"/><path d="m440.46 433.5c-46.57 48.39-112 78.5-184.46 78.5s-137.89-30.11-184.46-78.5z" fill="#d1f6ff"/><path d="m440.46 433.5c-46.57 48.39-112 78.5-184.46 78.5v-78.5z" fill="#8fc8f5"/><path d="m456.07 281.05h-285.86l51.84-47.28c9.49-8.66 21.35-14.15 33.95-15.84 2.77-.38 5.58-.57 8.4-.57h76.94c46.67 0 90.06 24.08 114.73 63.69z" fill="#474f6f"/><path d="m456.07 281.05h-200.07v-63.12c2.77-.38 5.58-.57 8.4-.57h76.94c46.67 0 90.06 24.08 114.73 63.69z" fill="#313b5a"/><path d="m331.41 234.93h-67.01c-2.84 0-5.65.27-8.4.78-8.2 1.55-15.85 5.34-22.11 11.05l-36.67 34.29h119.74l20.94-34.59c3.07-5.06-.58-11.53-6.49-11.53z" fill="#313b5a"/><path d="m337.9 246.46-20.94 34.59h-60.96v-45.34c2.75-.51 5.56-.78 8.4-.78h67.01c5.91 0 9.56 6.47 6.49 11.53z" fill="#22283a"/><path d="m483.32 292.44v47.28c0 .76-.04 1.51-.11 2.25-1.13 12.41-11.57 22.12-24.26 22.12h-406.39c-12.69 0-22.5-9.71-23.56-22.12-.07-.74-.11-1.49-.11-2.25 0 0-.47-11.13 0-13.15.65-2.82 1.72-5.51 3.18-7.97 2.82-4.82 7.08-8.78 12.36-11.24 23.88-11.08 48.65-19.88 74.03-26.31 4.26-1.09 8.53-2.1 12.81-3.04 17.01-3.76 34.24-6.46 51.62-8.09 13.11-1.24 26.29-1.86 39.5-1.86h236.56c9.34 0 17.45 5.27 21.53 12.99 1.69 3.16 2.68 6.74 2.81 10.53.01.28.03.57.03.86z" fill="#fed110"/><path d="m483.32 292.44v47.28c0 .76-.04 1.51-.11 2.25-1.13 12.41-11.57 22.12-24.26 22.12h-202.95v-96.03h202.95c9.34 0 17.45 5.27 21.53 12.99 1.69 3.16 2.68 6.74 2.81 10.53.01.28.03.57.03.86z" fill="#ffc300"/><path d="m483.21 341.97c-1.13 12.41-11.57 22.12-24.26 22.12h-406.39c-12.69 0-22.5-9.71-23.56-22.12z" fill="#ff9f00"/><path d="m483.21 341.97c-1.13 12.41-11.57 22.12-24.26 22.12h-202.95v-22.12z" fill="#ec781b"/><path d="m324.82 268.06v31.42c0 23.47-19.02 42.49-42.49 42.49h-99.44v-34.54c0-21.64 17.47-39.35 39.1-39.37z" fill="#ffc300"/><path d="m211.067 268.063c0 5.624 2.319 10.707 6.053 14.344 5.206 5.07 13.968 1.283 13.968-5.984v-16.719c0-7.267-8.762-11.054-13.968-5.984-3.734 3.636-6.053 8.719-6.053 14.343z" fill="#f4873d"/><path d="m483.316 329.68v10.037c0 13.453-10.915 24.368-24.368 24.368h-45.274c-7.475-1.989-12.997-8.809-12.997-16.916 0-4.832 1.954-9.207 5.124-12.366 3.17-3.17 7.546-5.124 12.377-5.124h65.138z" fill="#ec781b"/><path d="m483.311 292.443v23.596h-23.62c-9.663 0-17.501-7.826-17.501-17.49 0-4.831 1.954-9.207 5.124-12.377 3.17-3.159 7.546-5.124 12.377-5.124h20.789c1.685 3.159 2.679 6.738 2.808 10.529.011.281.023.573.023.866z" fill="#ff3445"/><circle cx="460.933" cy="298.282" fill="#ba0d5c" r="8.433"/><circle cx="144.594" cy="337.03" fill="#313b5a" r="40.67"/><circle cx="144.594" cy="337.03" fill="#474f6f" r="17.293"/><circle cx="407.739" cy="333.775" fill="#22283a" r="43.925"/><circle cx="407.739" cy="333.775" fill="#313b5a" r="18.677"/><path d="m314.717 294.215h-13.136c-3.896 0-7.054-3.158-7.054-7.054 0-3.896 3.158-7.054 7.054-7.054h13.136c3.896 0 7.054 3.158 7.054 7.054 0 3.896-3.158 7.054-7.054 7.054z" fill="#474f6f"/><path d="m118.457 281.048c0 7.113-2.819 13.933-7.85 18.952-17.292 12.107-37.89 18.601-59 18.601h-4.712c-6.223 0-8.25-8.507-2.625-11.168.053-.025.105-.05.158-.074 23.877-11.079 48.655-19.876 74.029-26.311z" fill="#fff"/><path d="m310.33 246.28c.06-.1.12-.14.18-.1.04.02-.02.06-.18.1z" fill="#313b5a"/><path d="m307.363 93.813c0-.067.005-.132.005-.199 0-12.17-9.866-22.036-22.037-22.036-2.891 0-5.65.563-8.18 1.575-4.887-8.754-14.237-14.678-24.975-14.678-13.944 0-25.55 9.986-28.073 23.196-.752-.108-1.52-.167-2.302-.167-7.582 0-13.934 5.248-15.631 12.309z" fill="#fff"/><path d="m285.862 93.813c0-.038.003-.076.003-.114 0-6.998-5.673-12.671-12.671-12.671-1.663 0-3.249.323-4.703.906-2.81-5.034-8.186-8.44-14.361-8.44-8.018 0-14.692 5.742-16.143 13.338-.432-.062-.874-.096-1.323-.096-4.36 0-8.012 3.018-8.988 7.078h58.186z" fill="#d0f6ff"/><path d="m142.797 177.735c0-.067.005-.132.005-.199 0-12.17-9.866-22.036-22.037-22.036-2.891 0-5.65.563-8.18 1.575-4.887-8.754-14.237-14.678-24.975-14.678-13.944 0-25.55 9.986-28.073 23.196-.752-.108-1.52-.167-2.302-.167-7.582 0-13.934 5.248-15.631 12.309z" fill="#fff"/><path d="m121.296 177.735c0-.038.003-.076.003-.114 0-6.998-5.673-12.671-12.671-12.671-1.663 0-3.249.323-4.703.906-2.81-5.034-8.186-8.44-14.361-8.44-8.018 0-14.692 5.742-16.143 13.338-.432-.062-.874-.096-1.323-.096-4.36 0-8.012 3.018-8.988 7.078h58.186z" fill="#d0f6ff"/><path d="m467.036 167.575c0-.067.005-.132.005-.199 0-12.17-9.866-22.036-22.037-22.036-2.891 0-5.65.563-8.18 1.575-4.887-8.754-14.237-14.678-24.974-14.678-13.944 0-25.551 9.986-28.073 23.196-.752-.108-1.52-.167-2.302-.167-7.582 0-13.934 5.248-15.631 12.309z" fill="#fff"/><path d="m445.535 167.575c0-.038.003-.076.003-.114 0-6.998-5.673-12.671-12.671-12.671-1.663 0-3.249.323-4.703.906-2.81-5.034-8.186-8.44-14.361-8.44-8.018 0-14.692 5.742-16.143 13.338-.432-.062-.874-.096-1.323-.096-4.36 0-8.012 3.018-8.988 7.078h58.186z" fill="#d0f6ff"/><path d="m324.82 268.06v31.42c0 23.47-19.02 42.49-42.49 42.49h-26.33v-73.91z" fill="#ff9f00"/></svg>