<svg id="Capa_1" enable-background="new 0 0 512 512" height="512" viewBox="0 0 512 512" width="512" xmlns="http://www.w3.org/2000/svg"><circle cx="256" cy="256" fill="#ffe400" r="256"/><path d="m512 256c0 87.11-43.52 164.07-110 210.31-41.41 28.8-91.73 45.69-146 45.69s-104.59-16.89-146-45.69c-66.48-46.24-110-123.2-110-210.31 0-46.22 12.25-89.57 33.68-127 44.12 77.07 127.16 129 222.32 129s178.21-51.93 222.32-129c21.43 37.43 33.68 80.78 33.68 127z" fill="#ffce00"/><path d="m454.29 226.94v190.98c-46.94 57.42-118.34 94.08-198.29 94.08s-151.35-36.66-198.29-94.08v-190.98c0-11.84 7.4-22.42 18.52-26.49l55.61-20.3 35.63-13h177.05l91.25 33.3c11.12 4.07 18.52 14.65 18.52 26.49z" fill="#4e689b"/><path d="m454.29 226.94v190.98c-46.94 57.42-118.34 94.08-198.29 94.08v-344.85h88.52l91.25 33.3c11.12 4.07 18.52 14.65 18.52 26.49z" fill="#374c81"/><path d="m344.525 325.327 9.834 50.021-98.359 81.346-98.359-81.346 9.834-50.021-41.238-13.411 5.6-131.761 35.638-13.007h177.05l35.637 13.007 5.601 131.761z" fill="#374c81"/><path d="m344.525 325.327 9.834 50.021-98.359 81.346v-289.546h88.525l35.637 13.007 5.601 131.761z" fill="#234177"/><path d="m344.523 167.148-88.524 289.542-88.522-289.542z" fill="#d1f6ff"/><path d="m344.523 167.148-88.524 289.542v-289.542z" fill="#8fc8f5"/><path d="m344.523 167.145v.003l-88.524 19.852-88.522-19.852 13.768-48.597h149.51z" fill="#d1f6ff"/><path d="m344.523 167.145v.003l-88.524 19.852v-68.449h74.756z" fill="#8fc8f5"/><path d="m214.863 249.96-47.386-82.813 13.769-48.596 74.754 68.449z" fill="#fff"/><path d="m297.137 249.96 47.386-82.813-13.769-48.596-74.754 68.449z" fill="#d1f6ff"/><path d="m313.804 220.973c3.296 9.536-4.829 18.704-14.208 17.372-1.359-.193-2.656-.666-3.883-1.288l-33.42-16.828c-1.981-.999-4.137-1.499-6.293-1.499s-4.312.5-6.293 1.499l-33.42 16.828c-1.227.622-2.524 1.096-3.883 1.288-9.378 1.332-17.503-7.836-14.208-17.372l4.575-13.244-4.838-13.156c-3.374-9.177 3.979-18.222 13.007-17.723 1.7.096 3.348.605 4.882 1.35l34.06 16.548c1.928.929 4.023 1.402 6.118 1.402s4.19-.473 6.118-1.402l34.06-16.548c1.534-.745 3.182-1.253 4.882-1.35 9.028-.5 16.382 8.546 13.007 17.723l-4.838 13.156z" fill="#4e689b"/><path d="m313.804 220.973c3.296 9.536-4.829 18.704-14.208 17.372-1.359-.193-2.656-.666-3.883-1.288l-33.42-16.828c-1.981-.999-4.137-1.499-6.293-1.499v-22.578c2.095 0 4.19-.473 6.118-1.402l34.06-16.548c1.534-.745 3.182-1.253 4.882-1.35 9.028-.5 16.382 8.546 13.007 17.723l-4.838 13.156z" fill="#374c81"/><path d="m271.803 196.896v21.509c0 5.469-4.426 9.895-9.896 9.895h-11.815c-5.469 0-9.896-4.426-9.896-9.895v-21.509c0-5.46 4.426-9.895 9.896-9.895h11.815c5.47-.001 9.896 4.434 9.896 9.895z" fill="#374c81"/><path d="m271.803 196.896v21.509c0 5.469-4.426 9.895-9.896 9.895h-5.907v-41.3h5.908c5.469 0 9.895 4.435 9.895 9.896z" fill="#234177"/></svg>