<svg height="512pt" viewBox="-22 0 512 512" width="512pt" xmlns="http://www.w3.org/2000/svg"><path d="m37.828125 117.738281-30.011719 275.109375c-3.472656 31.84375 21.46875 59.65625 53.5 59.65625h259.941406c32.035157 0 56.972657-27.8125 53.5-59.65625l-30.011718-275.109375c-1.21875-11.160156-10.644532-19.613281-21.875-19.613281h-263.167969c-11.230469-.003906-20.65625 8.453125-21.875 19.613281zm0 0" fill="#ed5176"/><path d="m374.757812 392.847656-30.011718-275.109375c-1.21875-11.160156-10.644532-19.617187-21.875-19.617187h-25.5c11.230468 0 20.65625 8.457031 21.875 19.617187l30.011718 275.109375c3.472657 31.84375-21.46875 59.652344-53.5 59.652344h25.5c32.035157 0 56.972657-27.808594 53.5-59.652344zm0 0" fill="#ba365f"/><path d="m7.503906 399.148438c.203125 29.121093 23.914063 53.351562 53.8125 53.351562h259.941406c29.902344 0 53.613282-24.230469 53.816407-53.351562zm0 0" fill="#ff76a4"/><path d="m349.570312 399.148438c-.199218 29.121093-23.910156 53.351562-53.808593 53.351562h25.496093.035157c.957031 0 1.910156-.027344 2.851562-.078125.324219-.015625.640625-.050781.964844-.070313.628906-.046874 1.257813-.089843 1.878906-.15625.378907-.039062.753907-.09375 1.132813-.140624.558594-.074219 1.113281-.140626 1.664062-.230469.398438-.0625.792969-.140625 1.191406-.210938.519532-.09375 1.039063-.1875 1.554688-.296875.40625-.085937.808594-.183594 1.210938-.28125.496093-.117187.992187-.238281 1.484374-.367187.40625-.109375.808594-.226563 1.210938-.347657.476562-.136718.953125-.28125 1.425781-.433593.40625-.132813.804688-.269531 1.203125-.410157.460938-.160156.917969-.328124 1.371094-.5.402344-.152343.800781-.308593 1.195312-.472656.441407-.179687.878907-.367187 1.316407-.558594.394531-.175781.789062-.351562 1.175781-.535156.425781-.199218.847656-.40625 1.265625-.621094.390625-.191406.777344-.390624 1.160156-.59375.40625-.21875.804688-.445312 1.203125-.671874.382813-.214844.769532-.429688 1.144532-.660157.386718-.230469.765624-.472656 1.144531-.710937.375-.242188.757812-.476563 1.128906-.726563.359375-.242187.707031-.496093 1.0625-.742187.378906-.269532.757813-.53125 1.128906-.808594.324219-.238281.632813-.492188.949219-.738281.386719-.300781.777344-.597657 1.15625-.910157.210938-.171874.410156-.355468.613281-.53125 1.03125-.875 2.035157-1.789062 2.996094-2.738281.074219-.074219.152344-.144531.230469-.21875.421875-.425781.832031-.867187 1.242187-1.304687.191407-.203125.390625-.40625.578125-.613282.386719-.425781.753906-.863281 1.121094-1.296874.203125-.234376.410156-.46875.605469-.707032.359375-.4375.703125-.886718 1.046875-1.332031.191406-.25.386718-.496094.578125-.75.335937-.453125.65625-.914063.980469-1.378906.179687-.261719.363281-.519531.539062-.78125.316406-.472657.617188-.949219.917969-1.429688.167969-.265625.332031-.53125.492187-.800781.296875-.492188.582032-.988281.863282-1.488281.148437-.265625.296874-.535157.441406-.804688.273437-.511719.539062-1.03125.800781-1.554687.128906-.261719.257813-.527344.382813-.796875.253906-.535157.503906-1.078125.742187-1.628907.113281-.253906.21875-.511718.324219-.769531.238281-.566406.46875-1.136719.683594-1.714843.089843-.238282.175781-.484376.261718-.726563.21875-.601563.429688-1.203125.625-1.816406.066406-.210938.128906-.421875.191406-.632813.199219-.652344.394532-1.304687.566407-1.960937.042969-.152344.074219-.304688.113281-.457031.183594-.722657.363281-1.453126.519531-2.191407v-.003906c.726563-3.449219 1.117188-7.011719 1.140625-10.652344h-25.496094zm0 0" fill="#ed5176"/><path d="m460.328125 354.066406-3.492187-86.195312c-.496094-12.203125-10.273438-21.980469-22.472657-22.472656l-86.195312-3.496094c-6.542969-.265625-12.898438 2.21875-17.527344 6.847656l-125.449219 125.445312c-9.96875 9.96875-9.96875 26.132813 0 36.101563l86.742188 86.742187c9.96875 9.96875 26.132812 9.96875 36.101562 0l125.449219-125.449218c4.628906-4.628906 7.109375-10.984375 6.84375-17.523438zm-62.453125-49.710937c-6.269531-6.269531-6.269531-16.4375 0-22.707031 6.269531-6.269532 16.4375-6.269532 22.707031 0 6.269531 6.269531 6.269531 16.4375 0 22.707031s-16.4375 6.269531-22.707031 0zm0 0" fill="#ffcd34"/><path d="m460.328125 354.066406-3.492187-86.195312c-.34375-8.46875-5.160157-15.757813-12.152344-19.597656 1.359375 2.746093 2.070312 5.929687 1.949218 9.394531l-2.804687 79.898437c-.210937 6.0625-2.964844 12.148438-7.59375 16.777344l-125.449219 125.445312c-9.96875 9.96875-25 11.105469-33.570312 2.535157l14.714844 14.714843c9.972656 9.96875 26.136718 9.96875 36.105468 0l125.449219-125.449218c4.628906-4.628906 7.109375-10.984375 6.84375-17.523438zm0 0" fill="#e69012"/><path d="m32.738281 164.417969c4.117188.457031 7.820313-2.523438 8.269531-6.644531l4.277344-39.222657c.804688-7.371093 7.003906-12.925781 14.417969-12.925781h52.109375v25.140625c0 4.140625 3.355469 7.5 7.5 7.5 4.140625 0 7.5-3.359375 7.5-7.5v-25.140625h128.953125v25.140625c0 4.140625 3.359375 7.5 7.503906 7.5 4.140625 0 7.5-3.359375 7.5-7.5v-25.140625h52.105469c7.414062 0 13.613281 5.558594 14.417969 12.929688l10.285156 94.269531c.417969 3.84375 3.667969 6.6875 7.445313 6.6875.269531 0 .546874-.015625.820312-.042969 4.121094-.449219 7.09375-4.152344 6.644531-8.269531l-10.285156-94.273438c-1.636719-14.996093-14.246094-26.304687-29.328125-26.304687h-52.109375v-11.144532c.003906-43.824218-35.652344-79.476562-79.476563-79.476562-43.824218 0-79.476562 35.652344-79.476562 79.476562v11.144532h-52.109375c-15.082031 0-27.691406 11.308594-29.328125 26.304687l-4.277344 39.222657c-.449218 4.117187 2.523438 7.820312 6.640625 8.269531zm94.074219-84.941407c0-35.550781 28.925781-64.476562 64.476562-64.476562 35.554688 0 64.476563 28.925781 64.476563 64.476562v11.144532h-128.953125zm0 0"/><path d="m392.574219 276.34375c-9.183594 9.183594-9.183594 24.128906 0 33.3125 4.589843 4.59375 10.621093 6.890625 16.65625 6.890625 6.03125 0 12.0625-2.296875 16.65625-6.890625 9.183593-9.183594 9.183593-24.128906 0-33.3125-9.183594-9.183594-24.128907-9.183594-33.3125 0zm22.707031 22.707031c-3.335938 3.335938-8.765625 3.335938-12.101562 0-3.335938-3.335937-3.335938-8.765625 0-12.097656 3.335937-3.335937 8.765624-3.335937 12.101562 0s3.335938 8.761719 0 12.097656zm0 0"/><path d="m467.824219 353.761719-3.492188-86.195313c-.648437-15.988281-13.679687-29.015625-29.664062-29.664062l-86.199219-3.496094c-8.609375-.351562-17.039062 2.945312-23.132812 9.039062l-125.445313 125.445313c-6.289063 6.289063-9.503906 14.503906-9.652344 22.761719h-174.746093l22.269531-204.171875c.449219-4.121094-2.523438-7.820313-6.640625-8.269531-4.125-.453126-7.820313 2.523437-8.269532 6.640624l-22.492187 206.1875c-1.882813 17.292969 3.695313 34.636719 15.3125 47.589844 11.613281 12.949219 28.253906 20.375 45.644531 20.375h182.976563l42.335937 42.335938c6.441406 6.441406 14.898438 9.660156 23.355469 9.660156s16.917969-3.21875 23.355469-9.660156l125.445312-125.445313c6.09375-6.09375 9.390625-14.523437 9.039063-23.132812zm-406.507813 91.242187c-13.136718 0-25.703125-5.609375-34.476562-15.390625-5.84375-6.511719-9.664063-14.496093-11.144532-22.960937h177.828126c1.5625 3.238281 3.6875 6.269531 6.367187 8.949218l29.402344 29.402344zm386.863282-78.714844-125.445313 125.445313c-7.03125 7.027344-18.46875 7.03125-25.5 0l-86.738281-86.738281c-7.027344-7.03125-7.027344-18.46875 0-25.5l125.449218-125.445313c2.988282-2.988281 7.066407-4.667969 11.277344-4.667969.210938 0 .425782.003907.640625.011719l86.195313 3.496094c8.238281.332031 14.949218 7.046875 15.285156 15.28125l3.492188 86.195313c.179687 4.4375-1.515626 8.78125-4.65625 11.921874zm0 0"/><path d="m305.765625 362.773438c14.367187 0 26.058594-11.691407 26.058594-26.054688 0-14.367188-11.691407-26.058594-26.058594-26.058594s-26.054687 11.691406-26.054687 26.058594c0 14.363281 11.6875 26.054688 26.054687 26.054688zm0-37.109376c6.097656 0 11.058594 4.957032 11.058594 11.054688 0 6.09375-4.960938 11.054688-11.058594 11.054688-6.09375 0-11.054687-4.960938-11.054687-11.054688 0-6.097656 4.960937-11.054688 11.054687-11.054688zm0 0"/><path d="m352.300781 383.625c-14.367187 0-26.054687 11.6875-26.054687 26.054688 0 14.367187 11.6875 26.058593 26.054687 26.058593 14.367188 0 26.054688-11.691406 26.054688-26.058593 0-14.367188-11.6875-26.054688-26.054688-26.054688zm0 37.109375c-6.097656 0-11.054687-4.957031-11.054687-11.054687 0-6.09375 4.957031-11.054688 11.054687-11.054688 6.097657 0 11.054688 4.960938 11.054688 11.054688 0 6.097656-4.960938 11.054687-11.054688 11.054687zm0 0"/><path d="m372.582031 329.652344c-2.929687-2.929688-7.679687-2.929688-10.605469 0l-76.488281 76.488281c-2.929687 2.929687-2.929687 7.679687 0 10.605469 1.460938 1.464844 3.382813 2.199218 5.300781 2.199218 1.917969 0 3.839844-.734374 5.304688-2.199218l76.488281-76.488282c2.929688-2.929687 2.929688-7.679687 0-10.605468zm0 0"/></svg>