<svg height="512" viewBox="0 0 64 64" width="512" xmlns="http://www.w3.org/2000/svg"><g id="Bag"><path d="m49 40h4a4 4 0 0 0 4-4v-24h-4v24a4 4 0 0 1 -4 4z" fill="#5eac24"/><path d="m11 61h8v-3-12-3h-8v2 14z" fill="#006df0"/><path d="m3 45h8v14h-8z" fill="#004fac"/><path d="m46 12h-23v24a4 4 0 0 0 4 4h22a4 4 0 0 0 4-4v-24z" fill="#7ed63e"/><path d="m59.19 49.5-16.8 9.7a6.04 6.04 0 0 1 -3 .8h-14.97a6.108 6.108 0 0 1 -2.69-.63l-2.73-1.37v-12l6.49-1.62a6.017 6.017 0 0 1 3.01.02l14.92 4a2.975 2.975 0 0 1 2.09 2.06h.01l10.67-6.16a3 3 0 0 1 3 5.2z" fill="#ffbcab"/><path d="m9 45h2v14h-2z" fill="#00479b"/><rect fill="#bd0022" height="2" rx="1" width="6" x="43" y="17"/><rect fill="#bd0022" height="2" rx="1" width="6" x="27" y="17"/><path d="m29 11v6h2v-6a7 7 0 0 1 7-7 7 7 0 0 1 7 7v6h2v-6a9 9 0 0 0 -9-9 9 9 0 0 0 -9 9z" fill="#d80027"/><path d="m45.591 50.776c-.017.1-.022.2-.049.3a3 3 0 0 1 -3.674 2.124l-11.568-3.1-.3.914 11.868 3.186a2.985 2.985 0 0 0 3.723-3.419z" fill="#ff9478"/></g></svg>