<svg height="512pt" viewBox="-26 0 512 512.0005" width="512pt" xmlns="http://www.w3.org/2000/svg"><path d="m30.796875 119.316406-30.46875 279.308594c-3.527344 32.332031 21.796875 60.566406 54.316406 60.566406h263.914063c32.523437 0 57.84375-28.234375 54.316406-60.566406l-30.46875-279.308594c-1.238281-11.335937-10.808594-19.917968-22.207031-19.917968h-267.191407c-11.402343 0-20.972656 8.582031-22.210937 19.917968zm0 0" fill="#ed5176"/><path d="m372.875 398.625-30.46875-279.308594c-1.238281-11.335937-10.808594-19.917968-22.207031-19.917968h-25.890625c11.398437 0 20.96875 8.582031 22.207031 19.917968l30.46875 279.308594c3.527344 32.332031-21.792969 60.566406-54.316406 60.566406h25.890625c32.523437 0 57.84375-28.234375 54.316406-60.566406zm0 0" fill="#ba365f"/><path d="m.0117188 405.023438c.2031252 29.566406 24.2773432 54.167968 54.6328122 54.167968h263.914063c30.355468 0 54.429687-24.601562 54.636718-54.167968zm0 0" fill="#ff76a4"/><path d="m347.304688 405.023438c-.207032 29.566406-24.28125 54.167968-54.636719 54.167968h25.890625.03125c.972656 0 1.9375-.03125 2.898437-.078125.328125-.019531.652344-.050781.976563-.074219.640625-.046874 1.277344-.089843 1.910156-.15625.386719-.042968.765625-.097656 1.148438-.148437.566406-.070313 1.132812-.140625 1.691406-.230469.40625-.0625.804687-.140625 1.207031-.214844.53125-.097656 1.058594-.191406 1.582031-.304687.410156-.085937.820313-.183594 1.226563-.28125.507812-.121094 1.011719-.242187 1.511719-.375.410156-.109375.816406-.230469 1.222656-.351563.488281-.140624.972656-.285156 1.453125-.441406.410156-.132812.816406-.273437 1.222656-.414062.464844-.164063.929687-.332032 1.390625-.507813.40625-.15625.808594-.316406 1.210938-.480469.449218-.183593.894531-.371093 1.335937-.566406.402344-.179687.800781-.355468 1.195313-.542968.433593-.203126.859374-.414063 1.285156-.628907.394531-.199219.789062-.398437 1.179687-.605469.410157-.21875.816407-.449218 1.222657-.679687.386718-.21875.777343-.4375 1.160156-.667969.390625-.238281.777344-.480468 1.160156-.726562.382812-.242188.769531-.484375 1.148438-.738282.363281-.242187.71875-.5 1.078124-.753906.386719-.269531.773438-.535156 1.148438-.816406.328125-.246094.640625-.5.964844-.753906.394531-.304688.789062-.605469 1.171875-.921875.210937-.175781.414062-.359375.621093-.539063 1.046876-.890625 2.066407-1.8125 3.042969-2.78125.074219-.074218.15625-.144531.234375-.222656.429688-.429688.84375-.878906 1.257813-1.324219.199219-.207031.398437-.410156.589843-.625.390626-.429687.765626-.871093 1.140626-1.3125.203124-.242187.414062-.476562.613281-.71875.363281-.445312.710937-.898437 1.0625-1.351562.195312-.253907.394531-.507813.585937-.761719.339844-.460938.667969-.929688.996094-1.398438.183594-.265624.367188-.527343.546875-.796874.320313-.476563.628906-.960938.933594-1.449219.167969-.269531.335937-.539063.5-.8125.300781-.496094.589843-1.003907.875-1.511719.148437-.269531.300781-.542969.445312-.816406.28125-.519532.550781-1.046875.816407-1.578125.132812-.265625.261718-.539063.390624-.808594.257813-.546875.511719-1.097656.75-1.652344.113282-.257812.222657-.523437.332032-.785156.238281-.574219.472656-1.152344.691406-1.738281.09375-.242188.179688-.488282.265625-.734375.222656-.613281.4375-1.226563.632813-1.847657.070312-.210937.128906-.429687.195312-.644531.203125-.660156.398438-1.320312.578125-1.992187.039063-.152344.074219-.304688.113281-.460938.1875-.738281.367188-1.476562.523438-2.222656 0-.003906.003906-.003906.003906-.007812.734375-3.5 1.132812-7.117188 1.160156-10.8125zm0 0" fill="#ed5176"/><path d="m459.753906 359.253906-3.546875-87.515625c-.503906-12.386719-10.429687-22.3125-22.816406-22.816406l-87.515625-3.546875c-6.640625-.269531-13.09375 2.25-17.792969 6.949219l-127.363281 127.363281c-10.121094 10.121094-10.121094 26.535156 0 36.65625l88.0625 88.0625c10.125 10.125 26.535156 10.125 36.65625 0l127.367188-127.363281c4.699218-4.699219 7.21875-11.148438 6.949218-17.789063zm-63.40625-50.472656c-6.367187-6.367188-6.367187-16.6875 0-23.054688 6.363282-6.363281 16.683594-6.363281 23.050782 0 6.367187 6.367188 6.367187 16.6875 0 23.054688-6.367188 6.367188-16.6875 6.367188-23.050782 0zm0 0" fill="#ffcd34"/><path d="m459.753906 359.253906-3.546875-87.515625c-.347656-8.59375-5.242187-16-12.339843-19.898437 1.382812 2.792968 2.101562 6.023437 1.980468 9.539062l-2.847656 81.121094c-.214844 6.15625-3.011719 12.332031-7.710938 17.03125l-127.363281 127.363281c-10.121093 10.121094-25.382812 11.277344-34.082031 2.574219l14.941406 14.941406c10.121094 10.121094 26.53125 10.121094 36.65625 0l127.363282-127.363281c4.699218-4.703125 7.21875-11.152344 6.949218-17.792969zm0 0" fill="#e69012"/><g fill="#252d4c"><path d="m259.679688 139.929688c-4.082032 0-7.390626-3.308594-7.390626-7.390626v-52.070312c0-36.21875-29.46875-65.683594-65.6875-65.683594s-65.6875 29.464844-65.6875 65.683594v52.070312c0 4.082032-3.308593 7.390626-7.390624 7.390626-4.082032 0-7.390626-3.308594-7.390626-7.390626v-52.070312c0-44.371094 36.097657-80.46875 80.46875-80.46875 44.371094 0 80.46875 36.097656 80.46875 80.46875v52.070312c0 4.082032-3.308593 7.390626-7.390624 7.390626zm0 0"/><path d="m302.828125 367.867188c-14.464844 0-26.230469-11.765626-26.230469-26.230469 0-14.460938 11.765625-26.230469 26.230469-26.230469 14.460937 0 26.230469 11.769531 26.230469 26.230469 0 14.464843-11.765625 26.230469-26.230469 26.230469zm0-37.675782c-6.3125 0-11.449219 5.132813-11.449219 11.445313s5.136719 11.449219 11.449219 11.449219 11.445313-5.136719 11.445313-11.449219-5.132813-11.445313-11.445313-11.445313zm0 0"/><path d="m350.074219 441.945312c-14.464844 0-26.234375-11.765624-26.234375-26.230468 0-14.460938 11.769531-26.230469 26.234375-26.230469 14.460937 0 26.230469 11.769531 26.230469 26.230469 0 14.464844-11.769532 26.230468-26.230469 26.230468zm0-37.675781c-6.3125 0-11.449219 5.136719-11.449219 11.449219 0 6.308594 5.136719 11.445312 11.449219 11.445312s11.445312-5.136718 11.445312-11.445312c0-6.316406-5.132812-11.449219-11.445312-11.449219zm0 0"/><path d="m287.621094 424.898438c-1.890625 0-3.785156-.722657-5.226563-2.167969-2.886719-2.882813-2.886719-7.566407 0-10.453125l77.65625-77.65625c2.886719-2.886719 7.566407-2.886719 10.453125 0 2.886719 2.886718 2.886719 7.566406 0 10.453125l-77.65625 77.65625c-1.441406 1.445312-3.335937 2.167969-5.226562 2.167969zm0 0"/></g></svg>