<svg height="512" viewBox="0 0 64 64" width="512" xmlns="http://www.w3.org/2000/svg"><g id="Bag"><path d="m49 40h4a4 4 0 0 0 4-4v-24h-4v24a4 4 0 0 1 -4 4z" fill="#4e901e"/><path d="m56 12v24a4 4 0 0 1 -4 4h1a4 4 0 0 0 4-4v-24z" fill="#447e1a"/><path d="m11 61h8v-3-12-3h-8v2 14z" fill="#006df0"/><path d="m3 45h8v14h-8z" fill="#004fac"/><path d="m46 12h-23v28h26a4 4 0 0 0 4-4v-24z" fill="#7ed63e"/><path d="m50 12v20a4 4 0 0 1 -4 4h-23v4h26a4 4 0 0 0 4-4v-24z" fill="#5eac24"/><path d="m59.19 49.5-16.8 9.7a6.04 6.04 0 0 1 -3 .8h-14.97a6.108 6.108 0 0 1 -2.69-.63l-2.73-1.37v-12l6.49-1.62a6.017 6.017 0 0 1 3.01.02l14.92 4a2.975 2.975 0 0 1 2.09 2.06h.01l10.67-6.16a3 3 0 0 1 3 5.2z" fill="#ffbcab"/><path d="m9 45h2v14h-2z" fill="#00479b"/><g fill="#231f20"><path d="m61.147 44.9a3.993 3.993 0 0 0 -5.457-1.469l-9.751 5.629a3.966 3.966 0 0 0 -2.259-1.629l-14.92-4a7 7 0 0 0 -3.51-.03l-5.25 1.318v-1.719a1 1 0 0 0 -1-1h-8a1 1 0 0 0 -1 1v1h-7a1 1 0 0 0 -1 1v14a1 1 0 0 0 1 1h7v1a1 1 0 0 0 1 1h8a1 1 0 0 0 1-1v-1.382l1.286.643a7.028 7.028 0 0 0 3.131.739h14.976a7 7 0 0 0 3.5-.938l16.8-9.7a4.01 4.01 0 0 0 1.454-5.462zm-57.147 13.1v-12h6v12zm14 2h-6v-16h6zm40.69-11.366-16.8 9.7a5 5 0 0 1 -2.5.67h-14.973a5.036 5.036 0 0 1 -2.237-.528l-2.18-1.094v-10.6l5.735-1.434a5.009 5.009 0 0 1 2.507.021l14.92 4a2 2 0 1 1 -1.036 3.863l-11.926-3.198a1 1 0 0 0 -.517 1.932l11.925 3.2a4.038 4.038 0 0 0 1.042.138 3.952 3.952 0 0 0 3.965-4.317l10.072-5.815a2.035 2.035 0 0 1 2.726.732 2.009 2.009 0 0 1 -.723 2.73z"/><path d="m23 41h30a5.006 5.006 0 0 0 5-5v-24a1 1 0 0 0 -1-1h-10a9 9 0 0 0 -18 0h-6a1 1 0 0 0 -1 1v28a1 1 0 0 0 1 1zm33-5a3 3 0 0 1 -3 3h-.026a4.948 4.948 0 0 0 1.026-3v-23h2zm-18-32a7.008 7.008 0 0 1 7 7h-14a7.008 7.008 0 0 1 7-7zm-14 9h5v4h-1a1 1 0 0 0 0 2h4a1 1 0 0 0 0-2h-1v-4h14v4h-1a1 1 0 0 0 0 2h4a1 1 0 0 0 0-2h-1v-4h5v23a3 3 0 0 1 -3 3h-25z"/></g></g></svg>