<svg height="512" viewBox="0 0 64 64" width="512" xmlns="http://www.w3.org/2000/svg"><g id="Signature"><path d="m15 3-12 12v46h44v-58z" fill="#ffeb99"/><path d="m43 40a2.012 2.012 0 0 0 1.992-2.177 2.075 2.075 0 0 0 -2.104-1.823h-.608l-2.31 4z" fill="#ff9478"/><path d="m27.6 55.43 6.6-5.43 2.31-4h-4.51a2.974 2.974 0 0 1 -1.98-.76l-1.02 1.76z" fill="#d80027"/><path d="m39.97 28h-2.919a7 7 0 0 0 -6.069 3.512l-6.182 10.758a2 2 0 0 0 .74 2.73 3.973 3.973 0 0 0 4.14-.1 3.022 3.022 0 0 1 -.68-1.87 3.162 3.162 0 0 1 3.184-3.03h.856l3.96-6.86z" fill="#ffbcab"/><path d="m51.2 20.56-5.2-3-6.03 10.44-2.97 5.14-3.96 6.86h6.93l2.31-4 4.62-8z" fill="#d80027"/><path d="m51.2 20.555 2.5-4.33a3 3 0 0 0 -5.2-3l-2.5 4.33z" fill="#ab2300"/><path d="m15 14v-11l-12 12h11a1 1 0 0 0 1-1z" fill="#2488ff"/><path d="m13 61h34v-34a33.98 33.98 0 0 1 -34 34z" fill="#ffe477"/><path d="m59.81 34a6 6 0 0 1 -4.61-2.159l-1.4-1.682a6 6 0 0 0 -4.61-2.159h-2.29l-4.62 8h.608a2.075 2.075 0 0 1 2.1 1.823 2.012 2.012 0 0 1 -1.988 2.177h-10.816a3.162 3.162 0 0 0 -3.184 3.03 3.022 3.022 0 0 0 .68 1.87 2.089 2.089 0 0 0 .2.22.806.806 0 0 0 .14.12 2.974 2.974 0 0 0 1.98.76h12.111a7.994 7.994 0 0 1 3.578.845l.622.31a7.994 7.994 0 0 0 3.578.845h9.111v-14z" fill="#ffbcab"/><g fill="#ff5023"><path d="m41 10h-20a1 1 0 0 1 0-2h20a1 1 0 0 1 0 2z"/><path d="m41 16h-20a1 1 0 0 1 0-2h20a1 1 0 0 1 0 2z"/><path d="m39 22h-28a1 1 0 0 1 0-2h28a1 1 0 0 1 0 2z"/><path d="m29 28h-18a1 1 0 0 1 0-2h18a1 1 0 0 1 0 2z"/><path d="m25 34h-14a1 1 0 0 1 0-2h14a1 1 0 0 1 0 2z"/><path d="m23 40h-12a1 1 0 0 1 0-2h12a1 1 0 0 1 0 2z"/></g><path d="m23 57h-12a1 1 0 0 1 0-2h12a1 1 0 0 1 0 2z" fill="#a7a9ac"/><path d="m21 46h-10a1 1 0 0 1 0-2h10a1 1 0 0 1 0 2z" fill="#ff5023"/></g></svg>